<?xml version="1.0" encoding="UTF-8"?><svg xmlns="http://www.w3.org/2000/svg" xmlns:xlink="http://www.w3.org/1999/xlink"><symbol viewBox="0 0 35 24" id="backward" xmlns="http://www.w3.org/2000/svg"><g transform="matrix(-1 0 0 1 35 0)" stroke="#FFF" fill="none" fill-rule="evenodd"><path d="M17.5 1.814v20.304a.5.5 0 00.78.414l15.537-10.497a.5.5 0 00-.013-.837L18.267 1.39a.5.5 0 00-.767.423zM.5 1.814v20.304a.5.5 0 00.78.414l15.537-10.497a.5.5 0 00-.013-.837L1.267 1.39a.5.5 0 00-.767.423z"/></g></symbol><symbol viewBox="0 0 23 22" id="backward-10seconds" xmlns="http://www.w3.org/2000/svg"><g transform="translate(-1)" fill="#FFF" fill-rule="evenodd"><path d="M12.364 0L8 4.364l4.364 4.363V5.091h6.909a3.278 3.278 0 013.272 3.273 3.278 3.278 0 01-3.272 3.272h-1.091v1.455h1.09C21.87 13.09 24 10.96 24 8.364c0-2.597-2.13-4.728-4.727-4.728h-6.91V0z" fill-rule="nonzero"/><text font-family="TrebuchetMS, Trebuchet MS" font-size="14"><tspan x=".158" y="21">10</tspan></text></g></symbol><symbol viewBox="0 0 19 22" id="backward-5seconds" xmlns="http://www.w3.org/2000/svg"><g transform="translate(-1)" fill="#FFF" fill-rule="evenodd"><path d="M8.364 0L4 4.364l4.364 4.363V5.091h6.909a3.278 3.278 0 013.272 3.273 3.278 3.278 0 01-3.272 3.272h-1.091v1.455h1.09C17.87 13.09 20 10.96 20 8.364c0-2.597-2.13-4.728-4.727-4.728h-6.91V0z" fill-rule="nonzero"/><text font-family="TrebuchetMS, Trebuchet MS" font-size="14"><tspan x=".496" y="21">5s</tspan></text></g></symbol><symbol viewBox="0 0 22 22" id="backward-frame" xmlns="http://www.w3.org/2000/svg"><g fill="none" fill-rule="evenodd"><path d="M10.364 0L6 4.364l4.364 4.363V5.091h6.909a3.278 3.278 0 013.272 3.273 3.278 3.278 0 01-3.272 3.272h-1.091v1.455h1.09C19.87 13.09 22 10.96 22 8.364c0-2.597-2.13-4.728-4.727-4.728h-6.91V0z" fill="#FFF" fill-rule="nonzero"/><rect stroke="#FFF" x=".5" y="11.5" width="13" height="10"/><circle fill="#FFF" cx="10.5" cy="14.5" r="1.5"/><path d="M.5 19.5c1.667-1.333 3.667-2 6-2 3 0 5.333.667 7 2" stroke="#FFF"/></g></symbol><symbol viewBox="0 0 19 22" id="backward-second" xmlns="http://www.w3.org/2000/svg"><g transform="translate(-1)" fill="#FFF" fill-rule="evenodd"><path d="M8.364 0L4 4.364l4.364 4.363V5.091h6.909a3.278 3.278 0 013.272 3.273 3.278 3.278 0 01-3.272 3.272h-1.091v1.455h1.09C17.87 13.09 20 10.96 20 8.364c0-2.597-2.13-4.728-4.727-4.728h-6.91V0z" fill-rule="nonzero"/><text font-family="TrebuchetMS, Trebuchet MS" font-size="14"><tspan x=".496" y="21">1s</tspan></text></g></symbol><symbol style="isolation:isolate" viewBox="0 0 100 100" id="backward-start" xmlns="http://www.w3.org/2000/svg"><defs><clipPath id="afa"><rect width="100" height="100"/></clipPath></defs><g clip-path="url(#afa)"><mask id="afb" x="-200%" y="-200%" width="400%" height="400%"><rect x="-200%" y="-200%" width="400%" height="400%" fill="#fff"/><path d="M88.734 4.88v90.575c0 .616-.249 1.173-.653 1.577a2.233 2.233 0 01-2.826.271L15.943 50.476c-.454-.307-.748-.772-.739-1.361.012-.773.404-1.634 1.122-2.578L85.313 2.994a2.224 2.224 0 011.683-.29c.557.126 1.065.465 1.738 2.176z" fill-rule="evenodd"/></mask><path d="M88.734 4.88v90.575c0 .616-.249 1.173-.653 1.577a2.233 2.233 0 01-2.826.271L15.943 50.476c-.454-.307-.748-.772-.739-1.361.012-.773.404-1.634 1.122-2.578L85.313 2.994a2.224 2.224 0 011.683-.29c.557.126 1.065.465 1.738 2.176z" fill="none" mask="url(#afb)" vector-effect="non-scaling-stroke" stroke="#FFF"/><path d="M88.734 4.88v90.575c0 .616-.249 1.173-.653 1.577a2.233 2.233 0 01-2.826.271L15.943 50.476c-.454-.307-.748-.772-.739-1.361.012-.773.404-1.634 1.122-2.578L85.313 2.994a2.224 2.224 0 011.683-.29c.557.126 1.065.465 1.738 2.176z" fill="none"/><mask id="afc" x="-200%" y="-200%" width="400%" height="400%"><rect x="-200%" y="-200%" width="400%" height="400%" fill="#fff"/><line x1="11.266" y1="1.25" x2="11.266" y2="99.391"/></mask><line x1="11.266" y1="1.25" x2="11.266" y2="99.391" mask="url(#afc)" vector-effect="non-scaling-stroke" stroke="#FFF"/></g></symbol><symbol viewBox="0 0 32 32" id="blue-pause" xmlns="http://www.w3.org/2000/svg"><g fill="none" fill-rule="evenodd"><circle fill="#0086B1" cx="16" cy="16" r="16"/><rect stroke="#FFF" stroke-width="1.5" x="9.75" y="6.75" width="4.333" height="18.5"/><rect stroke="#FFF" stroke-width="1.5" x="18.917" y="6.75" width="4.333" height="18.5"/></g></symbol><symbol viewBox="0 0 32 32" id="blue-play" xmlns="http://www.w3.org/2000/svg"><g fill="none" fill-rule="evenodd"><circle fill="#0086B1" cx="16" cy="16" r="16"/><path d="M11 6v20l1.364-.922L26 16 12.364 6.922 11 6zm1.781 3.372L22.716 16l-9.935 6.628V9.372z" fill="#FFF" fill-rule="nonzero"/></g></symbol><symbol viewBox="0 0 26 26" id="checked" xmlns="http://www.w3.org/2000/svg"><polygon points="14.8453608 0 5.11340206 10.7762557 1.15463918 6.39269406 0 7.71689498 5.11340206 13.3333333 16 1.27853881" transform="translate(5 7)" fill="#FFF" fill-rule="nonzero"/></symbol><symbol viewBox="0 0 25 24" id="clear" xmlns="http://www.w3.org/2000/svg"><g transform="translate(.443)" fill="none" fill-rule="evenodd"><rect fill="none" width="24" height="24"/><circle fill="#0086B1" cx="12" cy="12" r="12"/><g transform="translate(6 6)" stroke="#FFF" stroke-linecap="round" stroke-linejoin="round"><polyline points="0.364702898 0.519067468 5.86877633 6.0231409 11.3728498 11.5272143"/><polyline transform="matrix(-1 0 0 1 11.738 0)" points="0.364702898 0.519067468 5.86877633 6.0231409 11.3728498 11.5272143"/></g></g></symbol><symbol viewBox="0 0 24 24" id="compress" xmlns="http://www.w3.org/2000/svg"><path d="M8.22 8.008V.624a.616.616 0 00-.314-.541.652.652 0 00-.637 0 .616.616 0 00-.313.54v6.155H.64a.639.639 0 00-.555.305.607.607 0 000 .62.639.639 0 00.555.305h7.58zm15.146.002A.625.625 0 0024 7.416a.624.624 0 00-.59-.637H17.05V.625a.625.625 0 00-.58-.623L16.408 0a.626.626 0 00-.621.625V8.01h7.579zM7.595 24a.626.626 0 00.621-.625V15.99H.637c-.022 0-.042 0-.061.003a.621.621 0 00-.575.644c.017.33.298.586.636.584h6.316v6.154a.61.61 0 00.185.445c.121.117.286.182.457.18zm8.827 0a.626.626 0 00.622-.625V17.22h6.316a.639.639 0 00.555-.305.607.607 0 000-.62.639.639 0 00-.555-.306h-7.58v7.385a.61.61 0 00.186.445c.12.117.286.182.456.18z" fill="#FFF" fill-rule="nonzero"/></symbol><symbol viewBox="0 0 5 23" id="dots" xmlns="http://www.w3.org/2000/svg"><g fill="#FFF" fill-rule="evenodd"><circle cx="2.5" cy="2.5" r="2.5"/><circle cx="2.5" cy="11.5" r="2.5"/><circle cx="2.5" cy="20.5" r="2.5"/></g></symbol><symbol viewBox="0 0 12 7" id="down" xmlns="http://www.w3.org/2000/svg"><polygon transform="rotate(45 937.437 335.701)" points="45.6568542 753.656854 45.6568542 761.656854 37.6568542 761.656854" fill="#0085B1" fill-rule="evenodd"/></symbol><symbol viewBox="0 0 16 9" id="down2" xmlns="http://www.w3.org/2000/svg"><polygon points="1.18327974 0 0 1.16292135 7.40836013 8.44382022 8 9 8.59163987 8.44382022 16 1.16292135 14.8167203 0 8 6.6994382" fill="#0086B1" fill-rule="evenodd"/></symbol><symbol viewBox="0 0 25 25" id="download" xmlns="http://www.w3.org/2000/svg"><g transform="matrix(0 1 1 0 .5 .5)" stroke="#FFF" fill="none" fill-rule="evenodd"><path d="M11.78 7.428a.458.458 0 00-.235.793l3.367 3.317H1.126a.466.466 0 00-.449.484.469.469 0 00.493.44h13.742l-3.368 3.317a.459.459 0 00.19.81.478.478 0 00.472-.161l4.191-4.096.324-.332-.324-.332-4.191-4.096a.477.477 0 00-.382-.144h-.045z" stroke-width=".4" fill="#FFF" fill-rule="nonzero"/><path d="M24 0v24"/></g></symbol><symbol viewBox="0 0 10 16" id="drag-drop" xmlns="http://www.w3.org/2000/svg"><g fill="#FFF" fill-rule="evenodd"><rect x="6.25" width="3.75" height="3.692" rx="1"/><rect width="3.75" height="3.692" rx="1"/><rect y="6.154" width="3.75" height="3.692" rx="1"/><rect x="6.25" y="6.154" width="3.75" height="3.692" rx="1"/><rect y="12.308" width="3.75" height="3.692" rx="1"/><rect x="6.25" y="12.308" width="3.75" height="3.692" rx="1"/></g></symbol><symbol viewBox="0 0 48 48" id="error" xmlns="http://www.w3.org/2000/svg"><g fill="none" fill-rule="evenodd"><rect fill="#0086B1" width="48" height="48" rx="8"/><path d="M30.28 14.532c.782 0 1.446.273 1.993.82.547.547.82 1.211.82 1.992 0 .782-.273 1.446-.82 1.992-.547.547-1.211.82-1.992.82a2.738 2.738 0 01-2-.82 2.7 2.7 0 01-.828-1.992 2.7 2.7 0 01.828-1.992 2.738 2.738 0 012-.82zm-12.656 0c.782 0 1.446.273 1.993.82.547.547.82 1.211.82 1.992 0 .782-.273 1.446-.82 1.992-.547.547-1.211.82-1.993.82a2.738 2.738 0 01-2-.82 2.7 2.7 0 01-.828-1.992 2.7 2.7 0 01.828-1.992 2.738 2.738 0 012-.82zm21.297 19.39h-2.156c-2.885-2.063-7.052-3.094-12.5-3.094-6.48 0-10.864 1.03-13.156 3.093h-2.64c1.666-2.458 3.874-4.336 6.624-5.632 2.75-1.297 5.818-1.946 9.203-1.946 2.896 0 5.79.73 8.68 2.188 2.89 1.458 4.872 3.255 5.945 5.39z" fill="#FFF" fill-rule="nonzero"/></g></symbol><symbol viewBox="0 0 35 24" id="forward" xmlns="http://www.w3.org/2000/svg"><g stroke="#FFF" fill="none" fill-rule="evenodd"><path d="M17.5 1.814v20.304a.5.5 0 00.78.414l15.537-10.497a.5.5 0 00-.013-.837L18.267 1.39a.5.5 0 00-.767.423zM.5 1.814v20.304a.5.5 0 00.78.414l15.537-10.497a.5.5 0 00-.013-.837L1.267 1.39a.5.5 0 00-.767.423z"/></g></symbol><symbol viewBox="0 0 24 22" id="forward-10seconds" xmlns="http://www.w3.org/2000/svg"><g fill="#FFF" fill-rule="evenodd"><path d="M11.636 0L16 4.364l-4.364 4.363V5.091H4.727a3.278 3.278 0 00-3.272 3.273 3.278 3.278 0 003.272 3.272h1.091v1.455h-1.09C2.13 13.09 0 10.96 0 8.364c0-2.597 2.13-4.728 4.727-4.728h6.91V0z" fill-rule="nonzero"/><text font-family="TrebuchetMS, Trebuchet MS" font-size="14"><tspan x="9.158" y="21">10</tspan></text></g></symbol><symbol viewBox="0 0 20 23" id="forward-5seconds" xmlns="http://www.w3.org/2000/svg"><g fill="#FFF" fill-rule="evenodd"><path d="M11.636 0L16 4.364l-4.364 4.363V5.091H4.727a3.278 3.278 0 00-3.272 3.273 3.278 3.278 0 003.272 3.272h1.091v1.455h-1.09C2.13 13.09 0 10.96 0 8.364c0-2.597 2.13-4.728 4.727-4.728h6.91V0z" fill-rule="nonzero"/><text font-family="TrebuchetMS, Trebuchet MS" font-size="14"><tspan x="7.496" y="22">5s</tspan></text></g></symbol><symbol style="isolation:isolate" viewBox="0 0 100 100" id="forward-end" xmlns="http://www.w3.org/2000/svg"><defs><clipPath id="aua"><rect width="100" height="100"/></clipPath></defs><g clip-path="url(#aua)"><mask id="aub" x="-200%" y="-200%" width="400%" height="400%"><rect x="-200%" y="-200%" width="400%" height="400%" fill="#fff"/><path d="M8.75 8.771v88.162c0 .599.243 1.142.636 1.535a2.165 2.165 0 002.75.264l67.466-45.579c.442-.299.728-.752.719-1.326-.011-.752-.393-1.59-1.091-2.508L12.08 6.935a2.163 2.163 0 00-1.638-.281c-.542.122-1.037.452-1.692 2.117z" fill-rule="evenodd"/></mask><path d="M8.75 8.771v88.162c0 .599.243 1.142.636 1.535a2.165 2.165 0 002.75.264l67.466-45.579c.442-.299.728-.752.719-1.326-.011-.752-.393-1.59-1.091-2.508L12.08 6.935a2.163 2.163 0 00-1.638-.281c-.542.122-1.037.452-1.692 2.117z" fill="none" mask="url(#aub)" vector-effect="non-scaling-stroke" stroke="#FFF"/><path d="M8.75 8.771v88.162c0 .599.243 1.142.636 1.535a2.165 2.165 0 002.75.264l67.466-45.579c.442-.299.728-.752.719-1.326-.011-.752-.393-1.59-1.091-2.508L12.08 6.935a2.163 2.163 0 00-1.638-.281c-.542.122-1.037.452-1.692 2.117z" fill="none"/><mask id="auc" x="-200%" y="-200%" width="400%" height="400%"><rect x="-200%" y="-200%" width="400%" height="400%" fill="#fff"/><line x1="91.25" y1=".896" x2="91.25" y2="96.422"/></mask><line x1="91.25" y1=".896" x2="91.25" y2="96.422" mask="url(#auc)" vector-effect="non-scaling-stroke" stroke="#FFF"/></g></symbol><symbol viewBox="0 0 22 22" id="forward-frame" xmlns="http://www.w3.org/2000/svg"><g fill="none" fill-rule="evenodd"><path d="M11.636 0L16 4.364l-4.364 4.363V5.091H4.727a3.278 3.278 0 00-3.272 3.273 3.278 3.278 0 003.272 3.272h1.091v1.455h-1.09C2.13 13.09 0 10.96 0 8.364c0-2.597 2.13-4.728 4.727-4.728h6.91V0z" fill="#FFF" fill-rule="nonzero"/><rect stroke="#FFF" x="8.5" y="11.5" width="13" height="10"/><circle fill="#FFF" cx="18.5" cy="14.5" r="1.5"/><path d="M8.5 19.5c1.667-1.333 3.667-2 6-2 3 0 5.333.667 7 2" stroke="#FFF"/></g></symbol><symbol viewBox="0 0 19 23" id="forward-second" xmlns="http://www.w3.org/2000/svg"><g fill="#FFF" fill-rule="evenodd"><path d="M11.636 0L16 4.364l-4.364 4.363V5.091H4.727a3.278 3.278 0 00-3.272 3.273 3.278 3.278 0 003.272 3.272h1.091v1.455h-1.09C2.13 13.09 0 10.96 0 8.364c0-2.597 2.13-4.728 4.727-4.728h6.91V0z" fill-rule="nonzero"/><text font-family="TrebuchetMS, Trebuchet MS" font-size="14"><tspan x="6.496" y="22">1s</tspan></text></g></symbol><symbol viewBox="0 0 24 23" id="fullscreen" xmlns="http://www.w3.org/2000/svg"><path d="M0 0v7.077a.586.586 0 00.313.518c.198.106.44.106.637 0a.586.586 0 00.313-.518V1.18H7.58a.646.646 0 00.555-.293.561.561 0 000-.594A.646.646 0 007.58 0H0zm16.421 0c-.34-.002-.622.251-.634.569-.012.318.25.587.59.61H22.737v5.898c-.005.309.249.569.58.597l.061.002c.348-.007.627-.274.622-.6V0h-7.579zM.621 15.324c-.347.007-.626.274-.62.6L0 23h7.579c.022 0 .042 0 .062-.002.338-.028.592-.302.574-.618-.017-.315-.298-.562-.636-.56H1.263v-5.897a.572.572 0 00-.185-.426.658.658 0 00-.456-.173zm22.737 0c-.347.007-.626.274-.621.6v5.896H16.42a.646.646 0 00-.555.293.561.561 0 000 .594.646.646 0 00.555.293H24v-7.077a.572.572 0 00-.185-.426.658.658 0 00-.457-.173z" fill="#FFF" fill-rule="nonzero"/></symbol><symbol viewBox="0 0 15 18" id="padlock-close" xmlns="http://www.w3.org/2000/svg"><path d="M7.468 1a4.081 4.081 0 014.085 4.085v1.702h1.362c.56 0 1.021.462 1.021 1.022v8.17c0 .56-.461 1.021-1.021 1.021H2.02C1.461 17 1 16.539 1 15.979v-8.17c0-.56.461-1.022 1.021-1.022h1.362V5.085A4.081 4.081 0 017.468 1zm0 .68a3.385 3.385 0 00-3.404 3.405v1.702h6.808V5.085a3.385 3.385 0 00-3.404-3.404zm0 8.511c-.578 0-1.021.443-1.021 1.022 0 .306.135.574.34.744v.958a.682.682 0 001.362 0v-.958a.965.965 0 00.34-.744c0-.579-.442-1.022-1.02-1.022z" fill="#FFF" fill-rule="nonzero" stroke="#FFF" stroke-width=".2"/></symbol><symbol viewBox="0 0 15 18" id="padlock-open" xmlns="http://www.w3.org/2000/svg"><path d="M6.714 1c-.4-.001-.808.053-1.213.17-2.15.628-3.381 2.796-2.713 4.82v.02c.088.228.323.948.468 1.39H2.022C1.462 7.4 1 7.834 1 8.36v7.68c0 .526.462.96 1.022.96h10.896c.56 0 1.022-.434 1.022-.96V8.36c0-.526-.462-.96-1.022-.96H3.98a57.675 57.675 0 00-.554-1.6h.01c-.556-1.689.458-3.485 2.257-4.01 1.794-.524 3.716.425 4.278 2.11v.01c.077.254.447 1.38.447 1.38a.33.33 0 00.248.234.353.353 0 00.337-.098.306.306 0 00.064-.326s-.385-1.165-.447-1.37v-.01c-.5-1.516-1.924-2.546-3.512-2.7A4.13 4.13 0 006.714 1zM2.022 8.04h10.896c.19 0 .34.143.34.32v7.68c0 .178-.15.32-.34.32H2.022c-.19 0-.34-.142-.34-.32V8.36c0-.177.15-.32.34-.32zM7.47 10.6c-.579 0-1.022.416-1.022.96 0 .288.136.54.34.7v.9c0 .353.307.64.682.64.375 0 .681-.287.681-.64v-.9a.886.886 0 00.34-.7c0-.544-.442-.96-1.021-.96z" fill="#FFF" fill-rule="nonzero" stroke="#FFF" stroke-width=".2"/></symbol><symbol viewBox="0 0 18 24" id="pause" xmlns="http://www.w3.org/2000/svg"><g stroke="#FFF" fill="none" fill-rule="evenodd"><rect x=".5" y=".5" width="6" height="23"/><rect x="11.5" y=".5" width="6" height="23"/></g></symbol><symbol viewBox="0 0 16 16" id="pin" xmlns="http://www.w3.org/2000/svg"><path d="M10.173.346L9.75.923 6.73 5.038c-1.617-.28-3.329.176-4.576 1.424l-.442.423 3.269 3.269L0 15.134V16h.865l4.981-4.98 3.27 3.268.422-.442c1.248-1.247 1.705-2.959 1.424-4.577l4.115-3.019.577-.423-5.48-5.48zm.154 1.885l3.442 3.442-3.827 2.808-.346.25.116.404c.295 1.127-.027 2.303-.731 3.288L3.577 7.02c.986-.704 2.161-1.026 3.288-.73l.404.115.25-.346 2.808-3.827z" fill="#FFF" fill-rule="nonzero"/></symbol><symbol viewBox="0 0 12 24" id="play" xmlns="http://www.w3.org/2000/svg"><path d="M.5 22.793L11.293 12 .5 1.207v21.586z" stroke="#FFF" fill="none"/></symbol><symbol viewBox="0 0 26 12" id="playback-rate" xmlns="http://www.w3.org/2000/svg"><g transform="translate(1 1)" stroke="#FFF" fill="none" fill-rule="evenodd"><rect x="7" width="8" height="5" rx="2.5"/><line y1="2.5" x2="7" y2="2.5" stroke-linecap="square"/><line x1="15.5" y1="2.5" x2="24" y2="2.5" stroke-linecap="square"/><g transform="translate(0 9)" stroke-linecap="square"><path d="M0 0a1.5 1.5 0 001.5 1.5h21A1.5 1.5 0 0024 0h0"/><line x1="4" x2="4" y2="1.5"/><line x1="8" x2="8" y2="1.5"/><line x1="12" x2="12" y2="1.5"/><line x1="16" x2="16" y2="1.5"/><line x1="20" x2="20" y2="1.5"/></g></g></symbol><symbol viewBox="0 0 34 34" id="refresh" xmlns="http://www.w3.org/2000/svg"><g transform="translate(1)" fill="none"><circle cx="16" cy="16" r="16" fill="var(--hover, #EAEAEA)"/><path d="M13.988 8a3.441 3.441 0 00-3.428 3.429v8.595l-2.012-2.012L8 18.56l2.667 2.666.273.262.274-.262 2.667-2.666-.548-.548-2.012 2.012v-8.595a2.672 2.672 0 012.667-2.667h4.19V8h-4.19zm6.857 2.512l-.274.262-2.666 2.666.547.548 2.012-2.012v8.595a2.672 2.672 0 01-2.666 2.667h-4.19V24h4.19a3.441 3.441 0 003.428-3.429v-8.595l2.012 2.012.548-.548-2.667-2.666-.274-.262z" fill="#FFF"/></g></symbol><symbol viewBox="0 0 25 24" id="screenshot" xmlns="http://www.w3.org/2000/svg"><g transform="translate(1 1)" fill="none" fill-rule="evenodd"><g transform="translate(4 6)" fill="#FFF" fill-rule="nonzero"><path d="M0 5.202v9.242C0 15.854 1.094 17 2.44 17h15.12c1.346 0 2.44-1.146 2.44-2.556V5.202c0-1.342-1.04-2.432-2.322-2.432h-3.25l-.077-.355C14.037.992 12.841 0 11.445 0H8.55C7.159 0 5.963.992 5.645 2.415l-.078.355H2.322C1.041 2.77 0 3.864 0 5.202zm5.967-1.385a.503.503 0 00.486-.406l.167-.76c.213-.945 1.004-1.604 1.931-1.604h2.894c.926 0 1.718.659 1.93 1.603l.168.761a.507.507 0 00.486.406h3.644c.731 0 1.323.62 1.323 1.385v9.242c0 .833-.645 1.509-1.44 1.509H2.44c-.796 0-1.441-.676-1.441-1.51v-9.24c0-.766.592-1.386 1.322-1.386h3.645z"/><circle cx="3.5" cy="5.5" r="1"/><path d="M10.5 14c2.48 0 4.5-2.02 4.5-4.5S12.98 5 10.5 5 6 7.016 6 9.5 8.02 14 10.5 14zm0-7.929c1.89 0 3.429 1.54 3.429 3.429 0 1.89-1.54 3.429-3.429 3.429A3.434 3.434 0 017.071 9.5c0-1.89 1.54-3.429 3.429-3.429z"/></g><path d="M4 16H0V0h16v7" stroke="#FFF" stroke-dasharray="2"/></g></symbol><symbol viewBox="0 0 25 24" id="search" xmlns="http://www.w3.org/2000/svg"><path d="M9.952 0C4.706 0 .443 4.166.443 9.293c0 5.126 4.263 9.292 9.51 9.292a9.597 9.597 0 005.558-1.76L22.87 24l1.573-1.537-7.272-7.123a9.128 9.128 0 002.29-6.047C19.461 4.166 15.198 0 9.952 0zm-.009 1c4.702 0 8.5 3.575 8.5 8s-3.798 8-8.5 8-8.5-3.575-8.5-8 3.798-8 8.5-8z" fill="#0086B1" fill-rule="nonzero"/></symbol><symbol viewBox="0 0 26 12" id="slider" xmlns="http://www.w3.org/2000/svg"><g transform="translate(1 1)" stroke="#FFF" fill="none" fill-rule="evenodd"><rect x="7" width="8" height="5" rx="2.5"/><line y1="2.5" x2="7" y2="2.5" stroke-linecap="square"/><line x1="15.5" y1="2.5" x2="24" y2="2.5" stroke-linecap="square"/><g transform="translate(0 9)" stroke-linecap="square"><path d="M0 0a1.5 1.5 0 001.5 1.5h21A1.5 1.5 0 0024 0h0"/><line x1="4" x2="4" y2="1.5"/><line x1="8" x2="8" y2="1.5"/><line x1="12" x2="12" y2="1.5"/><line x1="16" x2="16" y2="1.5"/><line x1="20" x2="20" y2="1.5"/></g></g></symbol><symbol viewBox="0 0 26 26" id="slow-backward" xmlns="http://www.w3.org/2000/svg"><g transform="matrix(-1 0 0 1 25 1)" stroke="#FFF" fill="none" fill-rule="evenodd"><polygon points="9.81818182 17.4545455 13.7000199 14.6788068 17.4545455 12 13.7000199 9.32119318 9.81818182 6.54545455"/><path d="M12 24c6.627 0 12-5.373 12-12S18.627 0 12 0 0 5.373 0 12s5.373 12 12 12z" stroke-dasharray="38"/><path d="M12 24C5.373 24 0 18.627 0 12S5.373 0 12 0s12 5.373 12 12-5.373 12-12 12z" stroke-dasharray="2"/></g></symbol><symbol viewBox="0 0 26 26" id="slow-forward" xmlns="http://www.w3.org/2000/svg"><g transform="translate(1 1)" stroke="#FFF" fill="none" fill-rule="evenodd"><polygon points="9.81818182 17.4545455 13.7000199 14.6788068 17.4545455 12 13.7000199 9.32119318 9.81818182 6.54545455"/><path d="M12 24c6.627 0 12-5.373 12-12S18.627 0 12 0 0 5.373 0 12s5.373 12 12 12z" stroke-dasharray="38"/><path d="M12 24c6.627 0 12-5.373 12-12S18.627 0 12 0 0 5.373 0 12s5.373 12 12 12z" stroke-dasharray="2"/></g></symbol><symbol viewBox="0 0 24 24" id="subtitle" xmlns="http://www.w3.org/2000/svg"><g fill="none" fill-rule="evenodd"><rect stroke="#FFF" x=".5" y=".5" width="23" height="23" rx="2"/><rect fill="#FFF" x="7" y="14" width="13" height="2"/><rect fill="#FFF" x="4" y="18" width="13" height="2"/><rect fill="#FFF" x="18" y="18" width="2" height="2"/><rect fill="#FFF" x="4" y="14" width="2" height="2"/></g></symbol><symbol viewBox="0 0 12 6" id="up" xmlns="http://www.w3.org/2000/svg"><polygon transform="rotate(-135 -121.587 393.462)" points="66.6568542 753.656854 66.6568542 761.656854 58.6568542 761.656854" fill="#0085B1" fill-rule="evenodd"/></symbol><symbol viewBox="0 0 24 22" id="volume-off" xmlns="http://www.w3.org/2000/svg"><g fill="none" fill-rule="evenodd"><path d="M11.588 0c-.146 0-.29.03-.434.076-.29.093-.567.267-.808.515l-5.63 5.7H1.452C.653 6.291 0 6.953 0 7.761v5.822c0 .81.653 1.47 1.452 1.47h3.264l5.615 5.655c.535.544 1.222.783 1.781.515.564-.269.839-.917.839-1.667V1.606c0-.727-.367-1.331-.929-1.53A1.317 1.317 0 0011.588 0zm.015.97a.37.37 0 01.12.015c.137.048.27.17.27.622v17.949c0 .517-.169.748-.285.803-.116.055-.35.061-.719-.318l-6.033-6.11a.222.222 0 00-.03-.014c.035.032-.12-.275-.12-.455V7.883c0-.18.16-.49.12-.455a.228.228 0 00.03-.03l6.063-6.125c.225-.229.436-.3.584-.303zm6.753.88a.487.487 0 00-.105.925c2.85 1.455 4.79 4.44 4.79 7.897 0 3.459-1.94 6.443-4.79 7.899a.487.487 0 00-.094.874.478.478 0 00.513-.01A9.821 9.821 0 0024 10.672a9.821 9.821 0 00-5.33-8.762.464.464 0 00-.27-.06h-.044zm-1.707 2.577a.48.48 0 00-.414.41.486.486 0 00.279.514 6.049 6.049 0 013.144 5.321 6.065 6.065 0 01-3.129 5.321.487.487 0 00-.187.66c.127.235.42.32.651.19a7.03 7.03 0 003.623-6.17 7.035 7.035 0 00-3.638-6.186.48.48 0 00-.284-.06h-.045zM1.452 7.292h2.486c-.062.185-.09.388-.09.591v5.579c0 .203.03.403.09.591H1.452a.465.465 0 01-.464-.47V7.762c0-.262.206-.47.464-.47zm13.19.182a.48.48 0 00-.419.458.483.483 0 00.375.497 2.315 2.315 0 011.706 2.243 2.315 2.315 0 01-1.706 2.244.486.486 0 00.24.94 3.293 3.293 0 002.425-3.184 3.293 3.293 0 00-2.426-3.183.483.483 0 00-.194-.015z" fill="#FFF" fill-rule="nonzero"/><path d="M21.102 21.472L2 1" stroke="#FFF"/></g></symbol><symbol viewBox="0 0 24 22" id="volume-on" xmlns="http://www.w3.org/2000/svg"><path d="M11.588 0c-.146 0-.29.03-.434.076-.29.093-.567.267-.808.515l-5.63 5.7H1.452C.653 6.291 0 6.953 0 7.761v5.822c0 .81.653 1.47 1.452 1.47h3.264l5.615 5.655c.535.544 1.222.783 1.781.515.564-.269.839-.917.839-1.667V1.606c0-.727-.367-1.331-.929-1.53A1.317 1.317 0 0011.588 0zm.015.97a.37.37 0 01.12.015c.137.048.27.17.27.622v17.949c0 .517-.169.748-.285.803-.116.055-.35.061-.719-.318l-6.033-6.11a.222.222 0 00-.03-.014c.035.032-.12-.275-.12-.455V7.883c0-.18.16-.49.12-.455a.228.228 0 00.03-.03l6.063-6.125c.225-.229.436-.3.584-.303zm6.753.88a.487.487 0 00-.105.925c2.85 1.455 4.79 4.44 4.79 7.897 0 3.459-1.94 6.443-4.79 7.899a.487.487 0 00-.094.874.478.478 0 00.513-.01A9.821 9.821 0 0024 10.672a9.821 9.821 0 00-5.33-8.762.464.464 0 00-.27-.06h-.044zm-1.707 2.577a.48.48 0 00-.414.41.486.486 0 00.279.514 6.049 6.049 0 013.144 5.321 6.065 6.065 0 01-3.129 5.321.487.487 0 00-.187.66c.127.235.42.32.651.19a7.03 7.03 0 003.623-6.17 7.035 7.035 0 00-3.638-6.186.48.48 0 00-.284-.06h-.045zM1.452 7.292h2.486c-.062.185-.09.388-.09.591v5.579c0 .203.03.403.09.591H1.452a.465.465 0 01-.464-.47V7.762c0-.262.206-.47.464-.47zm13.19.182a.48.48 0 00-.419.458.483.483 0 00.375.497 2.315 2.315 0 011.706 2.243 2.315 2.315 0 01-1.706 2.244.486.486 0 00.24.94 3.293 3.293 0 002.425-3.184 3.293 3.293 0 00-2.426-3.183.483.483 0 00-.194-.015z" fill="#FFF" fill-rule="nonzero"/></symbol></svg>