<?xml version="1.0" encoding="UTF-8"?>
<svg viewBox="0 0 24 24" version="1.1" xmlns="http://www.w3.org/2000/svg"
>
    <g stroke="none" stroke-width="1" fill="none" fill-rule="evenodd">
        <g id="Artboard" transform="translate(-476.000000, -219.000000)" fill="#FFFFFF" fill-rule="nonzero">
            <g id="picto24/-resize_off" transform="translate(476.000000, 219.000000)">
                <path d="M8.21918101,8.00842579 L8.21914321,0.623796239 C8.22161014,0.402643072 8.10318974,0.195912629 7.90582239,0.0829326685 C7.70845504,-0.0276442228 7.46668036,-0.0276442228 7.26931301,0.0829326685 C7.07194567,0.195912629 6.95352526,0.402643072 6.95599219,0.623796239 L6.95599219,6.7776235 L0.6402371,6.7776235 C0.413264652,6.77521982 0.201094438,6.89060408 0.0851415957,7.08291118 C-0.0283449444,7.27521829 -0.0283449444,7.51079418 0.0851415957,7.70310128 C0.201094438,7.89540838 0.413264652,8.01079264 0.6402371,8.00838896 L8.21918101,8.00842579 Z M23.3655369,8.00961137 C23.7059953,8.01201506 23.9872441,7.7475931 23.9995794,7.41586304 C24.0119147,7.0841336 23.7504032,6.802884 23.4099443,6.77884592 C23.395142,6.77884592 23.3803392,6.77884592 23.3655369,6.77884592 L17.0497818,6.77884592 L17.0497818,0.625018655 C17.0547157,0.302903951 16.8006057,0.0312703237 16.4700151,0.00242425836 C16.4502784,0.00242425836 16.4305416,2.05734285e-05 16.408338,2.05734285e-05 C16.0604782,0.0072322436 15.7816963,0.286077542 15.7866308,0.625018655 L15.7865663,8.00962763 L23.3655369,8.00961137 Z M7.59453931,23.9998987 C7.9423991,23.992687 8.22118032,23.7138417 8.21624645,23.3749006 L8.21631094,15.9903079 L0.63734034,15.9903079 C0.615136672,15.9903079 0.595399937,15.9903079 0.575663202,15.9927116 C0.237671148,16.0215577 -0.0164388374,16.3076146 0.000830331773,16.6369404 C0.0181001325,16.9662661 0.299348917,17.223477 0.63734034,17.2210734 L6.95309543,17.2210734 L6.95309543,23.3749006 C6.9506285,23.5407653 7.0172395,23.7018227 7.13812748,23.8196106 C7.25901482,23.9373986 7.42431013,24.0023024 7.59453931,23.9998987 Z M16.4223274,23.9999355 C16.7701871,23.9927239 17.0489684,23.7138786 17.0440345,23.3749375 L17.0440345,17.2211102 L23.3597896,17.2211102 C23.586762,17.2235139 23.7989316,17.1081296 23.9148851,16.9158225 C24.0283716,16.7235154 24.0283716,16.4879395 23.9148851,16.2956324 C23.7989316,16.1033253 23.586762,15.9879411 23.3597896,15.9903447 L15.7808173,15.9903079 L15.7808835,23.3749375 C15.7784165,23.5408022 15.8450276,23.7018595 15.9659155,23.8196475 C16.0868029,23.9374354 16.2520982,24.0023392 16.4223274,23.9999355 Z"></path>
            </g>
        </g>
    </g>
</svg>
