<?xml version="1.0" encoding="UTF-8"?>
<svg viewBox="0 0 22 22" version="1.1" xmlns="http://www.w3.org/2000/svg"
>
    <g id="07---PLAYER-EXPERT" stroke="none" stroke-width="1" fill="none" fill-rule="evenodd">
        <g id="module-lecture-vidéo-1280-NEW-_5" transform="translate(-597.000000, -523.000000)">
            <g id="player_video_all" transform="translate(50.000000, 24.000000)">
                <g id="Bitmap" transform="translate(0.000000, 40.000000)">
                    <g id="player_video-audio" transform="translate(0.000000, 394.000000)">
                        <g id="Group-6" transform="translate(199.000000, 65.000000)">
                            <g id="picto24/picture_avance" transform="translate(348.000000, 0.000000)">
                                <g id="Group-2">
                                    <g id="ic_back-to">
                                        <path d="M4.36363636,0 L0,4.36363636 L4.36363636,8.72727273 L4.36363636,5.09090909 L11.2727273,5.09090909 C13.0760327,5.09090909 14.5454545,6.56033091 14.5454545,8.36363636 C14.5454545,10.1669418 13.0760327,11.6363636 11.2727273,11.6363636 L10.1818182,11.6363636 L10.1818182,13.0909091 L11.2727273,13.0909091 C13.8694218,13.0909091 16,10.9603309 16,8.36363636 C16,5.76694218 13.8694218,3.63636364 11.2727273,3.63636364 L4.36363636,3.63636364 L4.36363636,0 Z"
                                              id="Shape" fill="#FFFFFF" fill-rule="nonzero"
                                              transform="translate(8.000000, 6.545455) scale(-1, 1) translate(-8.000000, -6.545455) "></path>
                                        <rect id="Rectangle" stroke="#FFFFFF" x="8.5" y="11.5" width="13"
                                              height="10"></rect>
                                        <circle id="Oval" fill="#FFFFFF" cx="18.5" cy="14.5" r="1.5"></circle>
                                        <path d="M8.5,19.5 C10.1666667,18.1666667 12.1666667,17.5 14.5,17.5 C17.5,17.5 19.8333333,18.1666667 21.5,19.5"
                                              id="Path-4" stroke="#FFFFFF"></path>
                                    </g>
                                </g>
                            </g>
                        </g>
                    </g>
                </g>
            </g>
        </g>
    </g>
</svg>
