<?xml version="1.0" encoding="UTF-8"?>
<svg width="25px" height="24px" viewBox="0 0 25 24" version="1.1" xmlns="http://www.w3.org/2000/svg"
>
    <!-- Generator: Sketch 53.2 (72643) - https://sketchapp.com -->
    <title>picto24/capture-video@x2</title>
    <desc>Created with Sketch.</desc>
    <g id="06---PLAYER" stroke="none" stroke-width="1" fill="none" fill-rule="evenodd">
        <g id="Artboard" transform="translate(-288.000000, -265.000000)">
            <g id="picto24/capture-video" transform="translate(289.000000, 266.000000)">
                <g id="picto24/-photo-camera_grey" transform="translate(4.000000, 6.000000)" fill="#FFFFFF"
                   fill-rule="nonzero">
                    <path d="M0,5.20216243 L0,14.4438019 C0,15.8544129 1.09387755,17 2.44081633,17 L17.5591837,17 C18.9061224,17 20,15.8544129 20,14.4438019 L20,5.20216243 C20,3.85994468 18.9591837,2.76992708 17.677551,2.76992708 L14.4285714,2.76992708 L14.3510204,2.41513704 C14.0367347,0.991702288 12.8408163,0 11.444898,0 L8.55102041,0 C7.15918367,0 5.96326531,0.991702288 5.64489796,2.41513704 L5.56734694,2.76992708 L2.32244898,2.76992708 C1.04081633,2.76992708 0,3.86421926 0,5.20216243 Z M5.96734694,3.81719889 C6.2,3.81719889 6.4,3.65049032 6.45306122,3.4111139 L6.62040816,2.65023887 C6.83265306,1.70555695 7.6244898,1.04727181 8.55102041,1.04727181 L11.444898,1.04727181 C12.3714286,1.04727181 13.1632653,1.70555695 13.3755102,2.65023887 L13.5428571,3.4111139 C13.5959184,3.64621574 13.7959184,3.81719889 14.0285714,3.81719889 L17.6734694,3.81719889 C18.4040816,3.81719889 18.9959184,4.43701282 18.9959184,5.20216243 L18.9959184,14.4438019 C18.9959184,15.2773447 18.3510204,15.9527282 17.555102,15.9527282 L2.44081633,15.9527282 C1.64489796,15.9527282 1,15.2773447 1,14.4438019 L1,5.20216243 C1,4.43701282 1.59183673,3.81719889 2.32244898,3.81719889 L5.96734694,3.81719889 Z"
                          id="Shape"></path>
                    <circle id="Oval" cx="3.5" cy="5.5" r="1"></circle>
                    <path d="M10.5,14 C12.9795918,14 15,11.9795918 15,9.5 C15,7.02040816 12.9795918,5 10.5,5 C8.02040816,5 6,7.01603499 6,9.5 C6,11.983965 8.02040816,14 10.5,14 Z M10.5,6.07142857 C12.3892128,6.07142857 13.9285714,7.61078717 13.9285714,9.5 C13.9285714,11.3892128 12.3892128,12.9285714 10.5,12.9285714 C8.61078717,12.9285714 7.07142857,11.3892128 7.07142857,9.5 C7.07142857,7.61078717 8.61078717,6.07142857 10.5,6.07142857 Z"
                          id="Shape"></path>
                </g>
                <path d="M4,16 L0,16 L0,0 L16,0 L16,7" id="Path-2" stroke="#FFFFFF" stroke-dasharray="2"></path>
            </g>
        </g>
    </g>
</svg>
