<?xml version="1.0" encoding="UTF-8"?>
<svg viewBox="0 0 19 22" version="1.1" xmlns="http://www.w3.org/2000/svg">
    <g stroke="none" stroke-width="1" fill="none" fill-rule="evenodd">
        <g transform="translate(-542.000000, -521.000000)" fill="currentColor">
            <g transform="translate(320.000000, 160.000000)">
                <g>
                    <g transform="translate(0.000000, 41.000000)">
                        <g transform="translate(1.000000, 170.000000)">
                            <g transform="translate(145.000000, 150.000000)">
                                <g transform="translate(75.000000, 0.000000)">
                                    <g>
                                        <g transform="translate(4.000000, 0.000000)" fill-rule="nonzero">
                                            <path d="M4.36363636,0 L0,4.36363636 L4.36363636,8.72727273 L4.36363636,5.09090909 L11.2727273,5.09090909 C13.0760327,5.09090909 14.5454545,6.56033091 14.5454545,8.36363636 C14.5454545,10.1669418 13.0760327,11.6363636 11.2727273,11.6363636 L10.1818182,11.6363636 L10.1818182,13.0909091 L11.2727273,13.0909091 C13.8694218,13.0909091 16,10.9603309 16,8.36363636 C16,5.76694218 13.8694218,3.63636364 11.2727273,3.63636364 L4.36363636,3.63636364 L4.36363636,0 Z"
                                            ></path>
                                        </g>
                                        <text font-family="TrebuchetMS, Trebuchet MS" font-size="14"
                                              font-weight="normal">
                                            <tspan x="0.495605469" y="21">1s</tspan>
                                        </text>
                                    </g>
                                </g>
                            </g>
                        </g>
                    </g>
                </g>
            </g>
        </g>
    </g>
</svg>
