<?xml version="1.0" encoding="UTF-8"?>
<svg width="35px" height="24px" viewBox="0 0 35 24" version="1.1" xmlns="http://www.w3.org/2000/svg" xmlns:xlink="http://www.w3.org/1999/xlink">
    <!-- Generator: Sketch 53.2 (72643) - https://sketchapp.com -->
    <title>picto24/back-rapide@x2</title>
    <desc>Created with Sketch.</desc>
    <g id="06---PLAYER" stroke="none" stroke-width="1" fill="none" fill-rule="evenodd">
        <g id="Artboard" transform="translate(-220.000000, -307.000000)" stroke="#FFFFFF">
            <g id="picto24/back-rapide" transform="translate(237.000000, 319.000000) scale(-1, 1) translate(-237.000000, -319.000000) translate(219.000000, 307.000000)">
                <path d="M17.5,1.81370781 L17.5,22.1175842 C17.5,22.3937265 17.7238576,22.6175842 18,22.6175842 C18.0997608,22.6175842 18.1972409,22.5877418 18.2799048,22.5318948 L33.8173887,12.0348982 C34.0462062,11.880311 34.1063817,11.5695002 33.9517945,11.3406827 C33.9130657,11.2833569 33.8628618,11.234692 33.8043584,11.1977661 L18.2668746,1.39088636 C18.0333567,1.24349562 17.7245693,1.31331542 17.5771786,1.54683325 C17.5267592,1.62671492 17.5,1.71924516 17.5,1.81370781 Z" id="picto24/avance-rapide"></path>
                <path d="M0.5,1.81370781 L0.5,22.1175842 C0.5,22.3937265 0.723857625,22.6175842 1,22.6175842 C1.0997608,22.6175842 1.19724093,22.5877418 1.27990484,22.5318948 L16.8173887,12.0348982 C17.0462062,11.880311 17.1063817,11.5695002 16.9517945,11.3406827 C16.9130657,11.2833569 16.8628618,11.234692 16.8043584,11.1977661 L1.26687455,1.39088636 C1.03335672,1.24349562 0.724569302,1.31331542 0.577178556,1.54683325 C0.526759204,1.62671492 0.5,1.71924516 0.5,1.81370781 Z" id="picto24/avance-rapide-copy"></path>
            </g>
        </g>
    </g>
</svg>