<?xml version="1.0" encoding="UTF-8"?>
<svg width="19px" height="24px" viewBox="0 0 19 24" version="1.1" xmlns="http://www.w3.org/2000/svg">
    <g stroke="none" stroke-width="1" fill="none" fill-rule="evenodd">
        <g transform="translate(-260.000000, -504.000000)" stroke="currentColor">
            <g transform="translate(48.000000, 8.000000)">
                <g transform="translate(0.000000, 39.000000)">
                    <g transform="translate(0.000000, 392.000000)">
                        <g transform="translate(212.000000, 65.000000)">
                            <g>
                                <path d="M0.5,1.81370781 L0.5,22.1175842 C0.5,22.2556554 0.555964406,22.3806554 0.646446609,22.4711376 C0.736928813,22.5616198 0.861928813,22.6175842 1,22.6175842 C1.0997608,22.6175842 1.19724093,22.5877418 1.27990484,22.5318948 L16.8173887,12.0348982 C16.9192502,11.9660814 16.985175,11.8616997 16.9831196,11.7296507 C16.9804229,11.5564019 16.8925142,11.3634383 16.7316737,11.1518893 L1.26687455,1.39088636 C1.15011564,1.31719099 1.01453932,1.29779825 0.889728896,1.32601909 C0.764918469,1.35423993 0.650873929,1.43007434 0.5,1.81370781 Z"
                                      transform="translate(9.182966, 12.000000) scale(-1, 1) translate(-9.182966, -12.000000) "></path>
                                <line x1="0.5" y1="1" x2="0.5" y2="23" id="Path-2"></line>
                            </g>
                        </g>
                    </g>
                </g>
            </g>
        </g>
    </g>
</svg>
