<svg width="35" height="35" viewBox="0 0 35 35" fill="none" xmlns="http://www.w3.org/2000/svg">
    <circle cx="17.5" cy="17.5" r="16.9" stroke="white" stroke-width="1.2"/>
    <path d="M6.45526 17.3482H10.0043V18.6222H6.45526V17.3482ZM18.0202 21.0582V22.1992H12.5252V21.0582H14.6252V14.7442C14.6252 14.5202 14.6322 14.2916 14.6462 14.0582L13.0292 15.4232C12.9592 15.4792 12.8869 15.5166 12.8122 15.5352C12.7422 15.5492 12.6746 15.5492 12.6092 15.5352C12.5486 15.5212 12.4926 15.5002 12.4412 15.4722C12.3946 15.4396 12.3572 15.4046 12.3292 15.3672L11.8602 14.7092L14.8982 12.0982H16.1232V21.0582H18.0202ZM21.3743 15.9062C21.6683 15.6169 21.9903 15.3859 22.3403 15.2132C22.6903 15.0359 23.0987 14.9472 23.5653 14.9472C23.9573 14.9472 24.3003 15.0126 24.5943 15.1432C24.893 15.2739 25.1427 15.4582 25.3433 15.6962C25.5487 15.9342 25.7027 16.2212 25.8053 16.5572C25.908 16.8886 25.9593 17.2549 25.9593 17.6562V22.1992H24.4613V17.6562C24.4613 17.1756 24.3493 16.8022 24.1253 16.5362C23.906 16.2702 23.57 16.1372 23.1173 16.1372C22.7813 16.1372 22.4687 16.2142 22.1793 16.3682C21.8947 16.5222 21.6263 16.7322 21.3743 16.9982V22.1992H19.8693V11.8392H21.3743V15.9062Z" fill="white"/>
</svg>
