<?xml version="1.0" encoding="UTF-8"?>
<svg width="22px" height="22px" viewBox="0 0 22 22" version="1.1" xmlns="http://www.w3.org/2000/svg"
>
    <!-- Generator: sketchtool 63 (101010) - https://sketch.com -->
    <title>0B274108-9B90-470E-B12C-FE2AD3EC914E@x2</title>
    <desc>Created with sketchtool.</desc>
    <g stroke="none" stroke-width="1" fill="none" fill-rule="evenodd">
        <g transform="translate(-284.000000, -523.000000)">
            <g transform="translate(50.000000, 24.000000)">
                <g transform="translate(0.000000, 40.000000)">
                    <g transform="translate(0.000000, 394.000000)">
                        <g transform="translate(199.000000, 65.000000)">
                            <g transform="translate(35.000000, 0.000000)">
                                <g transform="translate(6.000000, 0.000000)" fill="currentColor" fill-rule="nonzero">
                                    <g>
                                        <g>
                                            <path d="M4.36363636,0 L0,4.36363636 L4.36363636,8.72727273 L4.36363636,5.09090909 L11.2727273,5.09090909 C13.0760327,5.09090909 14.5454545,6.56033091 14.5454545,8.36363636 C14.5454545,10.1669418 13.0760327,11.6363636 11.2727273,11.6363636 L10.1818182,11.6363636 L10.1818182,13.0909091 L11.2727273,13.0909091 C13.8694218,13.0909091 16,10.9603309 16,8.36363636 C16,5.76694218 13.8694218,3.63636364 11.2727273,3.63636364 L4.36363636,3.63636364 L4.36363636,0 Z"></path>
                                        </g>
                                    </g>
                                </g>
                                <rect stroke="currentColor" x="0.5" y="11.5" width="13" height="10"></rect>
                                <circle fill="currentColor" cx="10.5" cy="14.5" r="1.5"></circle>
                                <path d="M0.5,19.5 C2.16666667,18.1666667 4.16666667,17.5 6.5,17.5 C9.5,17.5 11.8333333,18.1666667 13.5,19.5"
                                      stroke="currentColor"></path>
                            </g>
                        </g>
                    </g>
                </g>
            </g>
        </g>
    </g>
</svg>
