<svg width="14" height="14" viewBox="0 0 14 14" fill="none" xmlns="http://www.w3.org/2000/svg">
    <g id="check">
        <path id="Vector" d="M4.86205 11.5948C4.78723 11.5923 4.71372 11.5746 4.64602 11.5426C4.57832 11.5107 4.51786 11.4653 4.46833 11.4091L0.754046 7.69484C0.683228 7.64893 0.623767 7.58752 0.580153 7.51526C0.536539 7.44301 0.509912 7.36178 0.502282 7.27773C0.494651 7.19367 0.506218 7.10898 0.536107 7.03005C0.565996 6.95112 0.613428 6.88001 0.67482 6.8221C0.736212 6.76418 0.809961 6.72097 0.890497 6.69572C0.971034 6.67048 1.05625 6.66386 1.13972 6.67637C1.22319 6.68888 1.30272 6.72019 1.37232 6.76793C1.44192 6.81568 1.49976 6.87861 1.54147 6.95199L4.86205 10.2503L12.6398 2.49484C12.7445 2.42695 12.8689 2.39618 12.9932 2.40746C13.1175 2.41875 13.2344 2.47143 13.3252 2.55706C13.416 2.6427 13.4753 2.75633 13.4938 2.87975C13.5123 3.00316 13.4889 3.12921 13.4272 3.2377L5.25576 11.4091C5.20624 11.4653 5.14577 11.5107 5.07807 11.5426C5.01037 11.5746 4.93686 11.5923 4.86205 11.5948Z" fill="currentColor"/>
    </g>
</svg>
