<svg width="15" height="15" viewBox="0 0 15 15" fill="none" xmlns="http://www.w3.org/2000/svg">
    <path d="M11.8926 5.16667L8.66675 1.94083C8.58478 1.85876 8.47357 1.8126 8.35758 1.8125H6.91675C6.4913 1.8125 6.08327 1.98151 5.78243 2.28235C5.48159 2.58319 5.31258 2.99122 5.31258 3.41667V4.14583H4.58341C4.15796 4.14583 3.74994 4.31484 3.4491 4.61568C3.14826 4.91652 2.97925 5.32455 2.97925 5.75V11.5833C2.97925 12.0088 3.14826 12.4168 3.4491 12.7177C3.74994 13.0185 4.15796 13.1875 4.58341 13.1875H8.66675C9.0922 13.1875 9.50023 13.0185 9.80107 12.7177C10.1019 12.4168 10.2709 12.0088 10.2709 11.5833V10.8542H10.4167C10.8422 10.8542 11.2502 10.6852 11.5511 10.3843C11.8519 10.0835 12.0209 9.67545 12.0209 9.25V5.45833C12.0163 5.34844 11.9705 5.2443 11.8926 5.16667V5.16667ZM8.81258 3.30583L10.5276 5.02083H8.81258V3.30583ZM9.39591 11.5833C9.39591 11.7767 9.31909 11.9622 9.18235 12.0989C9.0456 12.2357 8.86013 12.3125 8.66675 12.3125H4.58341C4.39003 12.3125 4.20456 12.2357 4.06782 12.0989C3.93107 11.9622 3.85425 11.7767 3.85425 11.5833V5.75C3.85425 5.55661 3.93107 5.37115 4.06782 5.2344C4.20456 5.09766 4.39003 5.02083 4.58341 5.02083H5.31258V9.25C5.31258 9.67545 5.48159 10.0835 5.78243 10.3843C6.08327 10.6852 6.4913 10.8542 6.91675 10.8542H9.39591V11.5833ZM10.4167 9.97917H6.91675C6.72336 9.97917 6.53789 9.90234 6.40115 9.7656C6.2644 9.62885 6.18758 9.44339 6.18758 9.25V3.41667C6.18758 3.22328 6.2644 3.03781 6.40115 2.90107C6.53789 2.76432 6.72336 2.6875 6.91675 2.6875H7.93758V5.45833C7.93909 5.5739 7.98567 5.6843 8.06739 5.76602C8.14911 5.84774 8.25952 5.89432 8.37508 5.89583H11.1459V9.25C11.1459 9.44339 11.0691 9.62885 10.9323 9.7656C10.7956 9.90234 10.6101 9.97917 10.4167 9.97917Z"
          fill="currentColor"/>
</svg>
