<?xml version="1.0" encoding="UTF-8"?>
<svg width="25px" height="25px" viewBox="0 0 25 25" version="1.1" xmlns="http://www.w3.org/2000/svg" xmlns:xlink="http://www.w3.org/1999/xlink">
    <!-- Generator: Sketch 53.2 (72643) - https://sketchapp.com -->
    <title>picto24/downlad@x2</title>
    <desc>Created with Sketch.</desc>
    <g id="06---PLAYER" stroke="none" stroke-width="1" fill="none" fill-rule="evenodd">
        <g id="Artboard" transform="translate(-477.000000, -173.000000)" stroke="#FFFFFF">
            <g id="picto24/downlad" transform="translate(489.500000, 186.000000) scale(1, -1) rotate(-90.000000) translate(-489.500000, -186.000000) translate(477.000000, 174.000000)">
                <path d="M11.7794118,7.42788462 C11.6029412,7.45853354 11.4613972,7.58473569 11.4117647,7.75240385 C11.3621322,7.92187523 11.4136028,8.10216369 11.5441176,8.22115385 L14.9117647,11.5384615 L1.16993223,11.5384615 C1.15522635,11.5384615 1.14052047,11.5384615 1.12581458,11.5384615 C0.866623524,11.5510818 0.664417407,11.767428 0.677285171,12.0216346 C0.690152936,12.2758412 0.910741171,12.4741588 1.16993223,12.4615385 L14.9117647,12.4615385 L11.5441176,15.7788462 C11.4044118,15.8906252 11.3400734,16.0691105 11.3805148,16.2421874 C11.4209558,16.4134615 11.5588235,16.548678 11.733456,16.5883412 C11.9099266,16.6280049 12.091912,16.5649038 12.2058824,16.4278846 L16.3970588,12.3317308 L16.7205882,12 L16.3970588,11.6682692 L12.2058824,7.57211538 C12.108456,7.46935108 11.966912,7.41706754 11.8235294,7.42788462 C11.8088235,7.42788462 11.7941176,7.42788462 11.7794118,7.42788462 Z" id="Shape" stroke-width="0.4" fill="#FFFFFF" fill-rule="nonzero"></path>
                <path d="M24,0 L24,24" id="Path-3"></path>
            </g>
        </g>
    </g>
</svg>