<?xml version="1.0" encoding="UTF-8"?>
<svg viewBox="0 0 48 48" version="1.1" xmlns="http://www.w3.org/2000/svg"
     xmlns:xlink="http://www.w3.org/1999/xlink">

    <g id="Style-guide" stroke="none" stroke-width="1" fill="none" fill-rule="evenodd">
        <g id="Artboard" transform="translate(-454.000000, -132.000000)">
            <g id="picto48/error-video" transform="translate(454.000000, 132.000000)">
                <rect id="Rectangle" fill="#0086B1" x="0" y="0" width="48" height="48" rx="8"></rect>
                <path d="M14,17.640625 C14,16.8593711 14.2734348,16.1953152 14.8203125,15.6484375 C15.3671902,15.1015598 16.0312461,14.828125 16.8125,14.828125 C17.5937539,14.828125 18.2578098,15.1015598 18.8046875,15.6484375 C19.3515652,16.1953152 19.625,16.8593711 19.625,17.640625 C19.625,18.4218789 19.3515652,19.0885389 18.8046875,19.640625 C18.2578098,20.1927111 17.5937539,20.46875 16.8125,20.46875 C16.0312461,20.46875 15.3671902,20.1927111 14.8203125,19.640625 C14.2734348,19.0885389 14,18.4218789 14,17.640625 Z M14,30.296875 C14,29.5156211 14.2734348,28.8515652 14.8203125,28.3046875 C15.3671902,27.7578098 16.0312461,27.484375 16.8125,27.484375 C17.5937539,27.484375 18.2578098,27.7578098 18.8046875,28.3046875 C19.3515652,28.8515652 19.625,29.5156211 19.625,30.296875 C19.625,31.0781289 19.3515652,31.7447889 18.8046875,32.296875 C18.2578098,32.8489611 17.5937539,33.125 16.8125,33.125 C16.0312461,33.125 15.3671902,32.8489611 14.8203125,32.296875 C14.2734348,31.7447889 14,31.0781289 14,30.296875 Z M33.3895833,9 L33.3895833,11.15625 C31.327073,14.0416811 30.2958333,18.2083061 30.2958333,23.65625 C30.2958333,30.1354491 31.327073,34.5208219 33.3895833,36.8125 L33.3895833,39.453125 C30.9312377,37.78645 29.0536523,35.5781387 27.7567708,32.828125 C26.4598893,30.0781113 25.8114583,27.0104336 25.8114583,23.625 C25.8114583,20.7291522 26.5406177,17.835952 27.9989583,14.9453125 C29.457299,12.054673 31.254156,10.072922 33.3895833,9 Z"
                      id=":(" fill="#FFFFFF" fill-rule="nonzero"
                      transform="translate(23.694792, 24.226562) rotate(90.000000) translate(-23.694792, -24.226562) "></path>
            </g>
        </g>
    </g>
</svg>
