<svg width="36" height="35" viewBox="0 0 36 35" fill="none" xmlns="http://www.w3.org/2000/svg">
    <circle cx="18.5" cy="17.5" r="16.9" stroke="white" stroke-width="1.2"/>
    <path d="M13.3582 17.87H10.5792V20.803H9.35416V17.87H6.58916V16.736H9.35416V13.81H10.5792V16.736H13.3582V17.87ZM21.2203 20.859V22H15.7253V20.859H17.8253V14.545C17.8253 14.321 17.8323 14.0923 17.8463 13.859L16.2293 15.224C16.1593 15.28 16.0869 15.3173 16.0123 15.336C15.9423 15.35 15.8746 15.35 15.8093 15.336C15.7486 15.322 15.6926 15.301 15.6413 15.273C15.5946 15.2403 15.5573 15.2053 15.5293 15.168L15.0602 14.51L18.0983 11.899H19.3233V20.859H21.2203ZM24.5743 15.707C24.8683 15.4177 25.1903 15.1867 25.5403 15.014C25.8903 14.8367 26.2987 14.748 26.7653 14.748C27.1573 14.748 27.5003 14.8133 27.7943 14.944C28.093 15.0747 28.3427 15.259 28.5433 15.497C28.7487 15.735 28.9027 16.022 29.0053 16.358C29.108 16.6893 29.1593 17.0557 29.1593 17.457V22H27.6613V17.457C27.6613 16.9763 27.5493 16.603 27.3253 16.337C27.106 16.071 26.77 15.938 26.3173 15.938C25.9813 15.938 25.6687 16.015 25.3793 16.169C25.0947 16.323 24.8263 16.533 24.5743 16.799V22H23.0693V11.64H24.5743V15.707Z" fill="white"/>
</svg>
