<?xml version="1.0" encoding="UTF-8" standalone="no"?><!-- Generator: Gravit.io -->
<svg xmlns="http://www.w3.org/2000/svg" style="isolation:isolate"
     viewBox="0 0 100 100" width="100pt" height="100pt">
    <defs>
        <clipPath id="_clipPath_jWZH8ruxaxTTbLZJKOmPOgIcxZlA47wI">
            <rect width="100" height="100"/>
        </clipPath>
    </defs>
    <g clip-path="url(#_clipPath_jWZH8ruxaxTTbLZJKOmPOgIcxZlA47wI)">
        <g>
            <g>
                <g>
                    <g>
                        <g>
                            <g>
                                <mask id="_mask_OkikMKNpm8VxZ219APh4JPBa1YZSBRS8" x="-200%" y="-200%" width="400%"
                                      height="400%">
                                    <rect x="-200%" y="-200%" width="400%" height="400%" style="fill:white;"/>
                                    <path d=" M 8.75 8.771 L 8.75 96.933 C 8.75 97.532 8.993 98.075 9.386 98.468 C 9.779 98.861 10.322 99.104 10.921 99.104 C 11.354 99.104 11.777 98.974 12.136 98.732 L 79.602 53.153 C 80.044 52.854 80.33 52.401 80.321 51.827 C 80.31 51.075 79.928 50.237 79.23 49.319 L 12.08 6.935 C 11.573 6.615 10.984 6.531 10.442 6.654 C 9.9 6.776 9.405 7.106 8.75 8.771 Z "
                                          fill-rule="evenodd" fill="black" stroke="none"/>
                                </mask>
                                <path d=" M 8.75 8.771 L 8.75 96.933 C 8.75 97.532 8.993 98.075 9.386 98.468 C 9.779 98.861 10.322 99.104 10.921 99.104 C 11.354 99.104 11.777 98.974 12.136 98.732 L 79.602 53.153 C 80.044 52.854 80.33 52.401 80.321 51.827 C 80.31 51.075 79.928 50.237 79.23 49.319 L 12.08 6.935 C 11.573 6.615 10.984 6.531 10.442 6.654 C 9.9 6.776 9.405 7.106 8.75 8.771 Z "
                                      fill-rule="evenodd" fill="none"
                                      mask="url(#_mask_OkikMKNpm8VxZ219APh4JPBa1YZSBRS8)"
                                      vector-effect="non-scaling-stroke" stroke-width="2" stroke="rgb(255,255,255)"
                                      stroke-linejoin="miter" stroke-linecap="butt" stroke-miterlimit="4"/>
                                <path d=" M 8.75 8.771 L 8.75 96.933 C 8.75 97.532 8.993 98.075 9.386 98.468 C 9.779 98.861 10.322 99.104 10.921 99.104 C 11.354 99.104 11.777 98.974 12.136 98.732 L 79.602 53.153 C 80.044 52.854 80.33 52.401 80.321 51.827 C 80.31 51.075 79.928 50.237 79.23 49.319 L 12.08 6.935 C 11.573 6.615 10.984 6.531 10.442 6.654 C 9.9 6.776 9.405 7.106 8.75 8.771 Z "
                                      fill-rule="evenodd" fill="none"/>
                                <mask id="_mask_9JmLFyxof3kp4ks1MpSp8Ad2AWdBL58b" x="-200%" y="-200%" width="400%"
                                      height="400%">
                                    <rect x="-200%" y="-200%" width="400%" height="400%" style="fill:white;"/>
                                    <line x1="91.25" y1="0.896" x2="91.25" y2="96.422" fill="black" stroke="none"/>
                                </mask>
                                <line x1="91.25" y1="0.896" x2="91.25" y2="96.422"
                                      mask="url(#_mask_9JmLFyxof3kp4ks1MpSp8Ad2AWdBL58b)"
                                      vector-effect="non-scaling-stroke" stroke-width="2" stroke="rgb(255,255,255)"
                                      stroke-linejoin="miter" stroke-linecap="butt" stroke-miterlimit="4"/>
                            </g>
                        </g>
                    </g>
                </g>
            </g>
        </g>
    </g>
</svg>
