<?xml version="1.0" encoding="UTF-8"?>
<svg width="24px" height="23px" viewBox="0 0 24 23" version="1.1" xmlns="http://www.w3.org/2000/svg"
     xmlns:xlink="http://www.w3.org/1999/xlink">
    <g stroke="none" stroke-width="1" fill="none" fill-rule="evenodd">
        <g id="Artboard" transform="translate(-316.000000, -172.000000)" fill="#FFFFFF" fill-rule="nonzero">
            <g id="picto24/-resize" transform="translate(316.000000, 172.000000)">
                <path d="M2.66906556e-05,-4.4408921e-16 L6.44921526e-05,7.07693665 C-0.00240244179,7.2888751 0.116017966,7.48699178 0.313385313,7.59526424 C0.510752659,7.70123376 0.752527343,7.70123376 0.94989469,7.59526424 C1.14726204,7.48699178 1.26568244,7.2888751 1.26321551,7.07693665 L1.26321551,1.17951886 L7.5789706,1.17951886 C7.80594305,1.18182239 8.01811326,1.0712458 8.13406611,0.886951498 C8.24755265,0.702657192 8.24755265,0.476896962 8.13406611,0.292602656 C8.01811326,0.10830835 7.80594305,-0.00226823376 7.5789706,3.52976354e-05 L2.66906556e-05,-4.4408921e-16 Z M16.4210277,3.52971513e-05 C16.0805694,-0.00226823424 15.7993206,0.251136142 15.7869853,0.569044115 C15.77465,0.886951498 16.0361614,1.15648236 16.3766204,1.17951886 C16.3914226,1.17951886 16.4062255,1.17951886 16.4210277,1.17951886 L22.7367828,1.17951886 L22.7367828,7.07693665 C22.731849,7.38562991 22.9859589,7.64594547 23.3165496,7.67358962 C23.3362863,7.67358962 23.356023,7.67589315 23.3782267,7.67589315 C23.7260865,7.66898196 24.0048683,7.40175522 23.9999338,7.07693665 L23.9999983,1.97162023e-05 L16.4210277,3.52971513e-05 Z M0.621771634,15.3241069 C0.273911844,15.331018 -0.00486937529,15.5982448 6.44925885e-05,15.9230633 L0,22.9999647 L7.5789706,22.9999647 C7.60117427,22.9999647 7.62091101,22.9999647 7.64064774,22.9976612 C7.9786398,22.970017 8.23274978,22.6958791 8.21548061,22.3802752 C8.19821081,22.0646714 7.91696203,21.8181776 7.5789706,21.8204811 L1.26321551,21.8204811 L1.26321551,15.9230633 C1.26568244,15.7641097 1.19907144,15.609763 1.07818347,15.4968829 C0.957296124,15.3840028 0.792000813,15.3218033 0.621771634,15.3241069 Z M23.35849,15.3241069 C23.0106302,15.331018 22.731849,15.5982448 22.7367828,15.9230633 L22.7367828,21.8204811 L16.4210277,21.8204811 C16.1940553,21.8181776 15.9818857,21.9287542 15.8659322,22.1130485 C15.7524457,22.2973428 15.7524457,22.523103 15.8659322,22.7073973 C15.9818857,22.8916917 16.1940553,23.0022682 16.4210277,22.9999647 L24,23 L23.9999338,15.9230633 C24.0024008,15.7641097 23.9357898,15.609763 23.8149018,15.4968829 C23.6940145,15.3840028 23.5287191,15.3218033 23.35849,15.3241069 Z"
                      id="Shape"></path>
            </g>
        </g>
    </g>
</svg>
