<?xml version="1.0" encoding="UTF-8"?>
<svg width="14px" height="16px" viewBox="0 0 14 16" version="1.1" xmlns="http://www.w3.org/2000/svg">
    <g stroke="none" stroke-width="1" fill="none" fill-rule="evenodd">
        <g transform="translate(-867.000000, -696.000000)" fill="currentColor" fill-rule="nonzero">
            <g transform="translate(723.000000, 692.000000)">
                <g transform="translate(65.000000, 0.000000)">
                    <g>
                        <g>
                            <g transform="translate(79.000000, 4.000000)">
                                <path d="M7.42857143,0 C6.63839314,0 5.98214286,0.553571429 5.78571429,1.28571429 C5.58482171,1.20312514 5.372768,1.14285714 5.14285714,1.14285714 C4.20312514,1.14285714 3.42857143,1.91741086 3.42857143,2.85714286 L3.42857143,9 L2.92857143,8.5 C2.26339314,7.83482171 1.16517886,7.83482171 0.5,8.5 C-0.165178286,9.16517886 -0.165178286,10.2633931 0.5,10.9285714 L4.375,14.8035714 C5.04687486,15.4732143 5.97544629,16 7.07142857,16 L9.71428571,16 C11.9174109,16 13.7142857,14.2031251 13.7142857,12 L13.7142857,5.14285714 C13.7142857,4.20312514 12.939732,3.42857143 12,3.42857143 C11.7991074,3.42857143 11.6093749,3.47098229 11.4285714,3.53571429 L11.4285714,2.85714286 C11.4285714,1.91741086 10.6540177,1.14285714 9.71428571,1.14285714 C9.48437486,1.14285714 9.27232171,1.20312514 9.07142857,1.28571429 C8.875,0.553571429 8.21875029,0 7.42857143,0 Z M7.42857143,1.14285714 C7.752232,1.14285714 8,1.39062514 8,1.71428571 L8,7.42857143 L9.14285714,7.42857143 L9.14285714,2.85714286 C9.14285714,2.53348229 9.39062514,2.28571429 9.71428571,2.28571429 C10.0379463,2.28571429 10.2857143,2.53348229 10.2857143,2.85714286 L10.2857143,7.42857143 L11.4285714,7.42857143 L11.4285714,5.14285714 C11.4285714,4.81919657 11.6763394,4.57142857 12,4.57142857 C12.3236606,4.57142857 12.5714286,4.81919657 12.5714286,5.14285714 L12.5714286,12 C12.5714286,13.5848217 11.2991074,14.8571429 9.71428571,14.8571429 L7.07142857,14.8571429 C6.34375029,14.8571429 5.71875029,14.502232 5.19642857,13.9821429 L1.30357143,10.125 C1.07589314,9.89732171 1.07589314,9.53125029 1.30357143,9.30357143 C1.53125029,9.07589314 1.89732171,9.07589314 2.125,9.30357143 L3.58928571,10.7857143 L4.57142857,11.7678571 L4.57142857,2.85714286 C4.57142857,2.53348229 4.81919657,2.28571429 5.14285714,2.28571429 C5.46651771,2.28571429 5.71428571,2.53348229 5.71428571,2.85714286 L5.71428571,7.42857143 L6.85714286,7.42857143 L6.85714286,1.71428571 C6.85714286,1.39062514 7.10491086,1.14285714 7.42857143,1.14285714 Z"></path>
                            </g>
                        </g>
                    </g>
                </g>
            </g>
        </g>
    </g>
</svg>
