<svg width="14" height="14" viewBox="0 0 14 14" fill="none" xmlns="http://www.w3.org/2000/svg">
    <g id="info">
        <path id="Vector" fill-rule="evenodd" clip-rule="evenodd" d="M6.35783 2.16387C6.52838 2.33442 6.75878 2.43163 6.99996 2.43478C7.24113 2.43163 7.47154 2.33442 7.64209 2.16387C7.81264 1.99332 7.90985 1.76291 7.913 1.52174V0.913043C7.913 0.670889 7.81681 0.438653 7.64558 0.267424C7.47435 0.0961953 7.24211 0 6.99996 0C6.7578 0 6.52557 0.0961953 6.35434 0.267424C6.18311 0.438653 6.08691 0.670889 6.08691 0.913043V1.52174C6.09007 1.76291 6.18728 1.99332 6.35783 2.16387ZM6.35783 13.7291C6.52838 13.8996 6.75878 13.9968 6.99996 14C7.24113 13.9968 7.47154 13.8996 7.64209 13.7291C7.81264 13.5585 7.90985 13.3281 7.913 13.0869V4.5652C7.913 4.32305 7.81681 4.09081 7.64558 3.91959C7.47435 3.74836 7.24211 3.65216 6.99996 3.65216C6.7578 3.65216 6.52557 3.74836 6.35434 3.91959C6.18311 4.09081 6.08691 4.32305 6.08691 4.5652V13.0869C6.09007 13.3281 6.18728 13.5585 6.35783 13.7291Z" fill="currentColor"/>
    </g>
</svg>
