<?xml version="1.0" encoding="UTF-8"?>
<svg width="32px" height="32px" viewBox="0 0 32 32" version="1.1" xmlns="http://www.w3.org/2000/svg" xmlns:xlink="http://www.w3.org/1999/xlink">
    <g stroke="none" stroke-width="1" fill="none">
        <circle id="Oval-4" style="fill:var(--hover, #EAEAEA)" cx="16" cy="16" r="16"></circle>
        <path d="M13.3076923,4.5 L13.3076923,11.86 L11.4615385,11.86 L11.4615385,7.05875 C8.66346154,8.88078148 6.84615385,11.9175 6.84615385,15.54 C6.84615385,21.110313 11.4110582,25.66 17,25.66 L17,27.5 C10.4050483,27.5 5,22.1129685 5,15.54 C5,11.8060935 6.65865385,8.53578148 9.29807692,6.34 L5.92307692,6.34 L5.92307692,4.5 L13.3076923,4.5 Z" id="Combined-Shape" fill="currentColor"></path>
        <path d="M23.3076923,4.5 L23.3076923,11.86 L21.4615385,11.86 L21.4615385,7.05875 C18.6634615,8.88078148 16.8461538,11.9175 16.8461538,15.54 C16.8461538,21.110313 21.4110582,25.66 27,25.66 L27,27.5 C20.4050483,27.5 15,22.1129685 15,15.54 C15,11.8060935 16.6586538,8.53578148 19.2980769,6.34 L15.9230769,6.34 L15.9230769,4.5 L23.3076923,4.5 Z" id="Combined-Shape" fill="currentColor" transform="translate(21.000000, 16.000000) scale(-1, -1) translate(-21.000000, -16.000000) "></path>
    </g>
</svg>
