<?xml version="1.0" encoding="UTF-8"?>
<svg width="15px" height="18px" viewBox="0 0 15 18" version="1.1" xmlns="http://www.w3.org/2000/svg" xmlns:xlink="http://www.w3.org/1999/xlink">
    <!-- Generator: Sketch 53.2 (72643) - https://sketchapp.com -->
    <title>picto16 /lock_open@x2</title>
    <desc>Created with Sketch.</desc>
    <g id="06---PLAYER" stroke="none" stroke-width="1" fill="none" fill-rule="evenodd">
        <g id="Artboard" transform="translate(-83.000000, -309.000000)" fill="#FFFFFF" fill-rule="nonzero" stroke="#FFFFFF" stroke-width="0.2">
            <g id="picto16-/lock_open" transform="translate(84.000000, 310.000000)">
                <g id="icons8-unlock">
                    <path d="M5.71445705,2.12939343e-05 C5.31407269,-0.00122870605 4.90570708,0.0525214533 4.50133209,0.170021292 C2.3504297,0.797521444 1.12001247,2.96627118 1.7877631,4.99002123 L1.7877631,5.01002123 C1.87555521,5.23752139 2.11099714,5.95752138 2.25598677,6.40002121 L1.02157891,6.40002121 C0.46157285,6.40002121 0,6.83377129 0,7.3600212 L0,15.0400211 C0,15.566271 0.46157285,16.0000211 1.02157891,16.0000211 L11.9184207,16.0000211 C12.4784267,16.0000211 12.9399996,15.566271 12.9399996,15.0400211 L12.9399996,7.3600212 C12.9399996,6.83377129 12.4784267,6.40002121 11.9184207,6.40002121 L2.97960517,6.40002121 C2.87452079,6.08252138 2.55793791,5.14377131 2.42624992,4.80002123 L2.43689137,4.80002123 C1.8795455,3.11127117 2.89447359,1.31502128 4.69287814,0.790021284 C6.48729206,0.266271211 8.40940368,1.21502128 8.97073984,2.90002126 C8.97073984,2.90127118 8.97073984,2.90877134 8.97073984,2.91002126 C9.0478905,3.16377133 9.41768062,4.29002124 9.41768062,4.29002124 C9.44827486,4.40502124 9.54404788,4.49627116 9.66642452,4.52377132 C9.79013126,4.5525214 9.91915872,4.51502124 10.0029602,4.42627116 C10.0867617,4.33627116 10.1120352,4.21127116 10.0668089,4.10002124 C10.0668089,4.10002124 9.6823867,2.93502126 9.61986811,2.73002126 L9.61986811,2.72002126 C9.1197201,1.20377136 7.69642673,0.173771372 6.10819059,0.0200212937 C5.9765026,0.00752129384 5.84747514,2.12939343e-05 5.71445705,2.12939343e-05 Z M1.02157891,7.04002121 L11.9184207,7.04002121 C12.1073065,7.04002121 12.258947,7.18252136 12.258947,7.3600212 L12.258947,15.0400211 C12.258947,15.2175213 12.1073065,15.3600211 11.9184207,15.3600211 L1.02157891,15.3600211 C0.8326934,15.3600211 0.681052609,15.2175213 0.681052609,15.0400211 L0.681052609,7.3600212 C0.681052609,7.18252136 0.8326934,7.04002121 1.02157891,7.04002121 Z M6.46999979,9.60002117 C5.89137102,9.60002117 5.44842088,10.0162711 5.44842088,10.5600212 C5.44842088,10.8475213 5.5840995,11.1000212 5.78894718,11.2600212 L5.78894718,12.1600211 C5.78894718,12.5125213 6.09488895,12.8000211 6.46999979,12.8000211 C6.84511097,12.8000211 7.1510524,12.5125213 7.1510524,12.1600211 L7.1510524,11.2600212 C7.35590043,11.1000212 7.4915787,10.8475213 7.4915787,10.5600212 C7.4915787,10.0162711 7.04862856,9.60002117 6.46999979,9.60002117 Z" id="Shape"></path>
                </g>
            </g>
        </g>
    </g>
</svg>