<?xml version="1.0" encoding="UTF-8"?>
<svg width="15px" height="18px" viewBox="0 0 15 18" version="1.1" xmlns="http://www.w3.org/2000/svg" xmlns:xlink="http://www.w3.org/1999/xlink">
    <!-- Generator: Sketch 53.2 (72643) - https://sketchapp.com -->
    <title>picto16/lock@x2</title>
    <desc>Created with Sketch.</desc>
    <g id="06---PLAYER" stroke="none" stroke-width="1" fill="none" fill-rule="evenodd">
        <g id="Artboard" transform="translate(-135.000000, -309.000000)" fill="#FFFFFF" fill-rule="nonzero" stroke="#FFFFFF" stroke-width="0.2">
            <g id="picto16/lock" transform="translate(136.000000, 310.000000)">
                <path d="M6.46808511,0 C8.7273937,0 10.5531915,1.82579779 10.5531915,4.08510638 L10.5531915,5.78723404 L11.9148936,5.78723404 C12.474734,5.78723404 12.9361702,6.2486703 12.9361702,6.80851064 L12.9361702,14.9787234 C12.9361702,15.5385637 12.474734,16 11.9148936,16 L1.0212766,16 C0.461436255,16 0,15.5385637 0,14.9787234 L0,6.80851064 C0,6.2486703 0.461436255,5.78723404 1.0212766,5.78723404 L2.38297872,5.78723404 L2.38297872,4.08510638 C2.38297872,1.82579779 4.20877651,0 6.46808511,0 Z M6.46808511,0.680851064 C4.57313838,0.680851064 3.06382979,2.19015966 3.06382979,4.08510638 L3.06382979,5.78723404 L9.87234043,5.78723404 L9.87234043,4.08510638 C9.87234043,2.19015966 8.36303183,0.680851064 6.46808511,0.680851064 Z M6.46808511,9.19148936 C5.88962757,9.19148936 5.44680851,9.63430843 5.44680851,10.212766 C5.44680851,10.5186172 5.58244698,10.787234 5.78723404,10.9574468 L5.78723404,11.9148936 C5.78723404,12.2898938 6.09308528,12.5957447 6.46808511,12.5957447 C6.84308528,12.5957447 7.14893617,12.2898938 7.14893617,11.9148936 L7.14893617,10.9574468 C7.35372357,10.787234 7.4893617,10.5186172 7.4893617,10.212766 C7.4893617,9.63430843 7.04654264,9.19148936 6.46808511,9.19148936 Z" id="Combined-Shape"></path>
            </g>
        </g>
    </g>
</svg>