<?xml version="1.0" encoding="UTF-8"?>
<svg width="16px" height="16px" viewBox="0 0 16 16" version="1.1" xmlns="http://www.w3.org/2000/svg" xmlns:xlink="http://www.w3.org/1999/xlink">
    <!-- Generator: sketchtool 63 (101010) - https://sketch.com -->
    <title>9F4BDDDA-CB07-46FD-B41A-EE056FBCB173@x2</title>
    <desc>Created with sketchtool.</desc>
    <g id="07---PLAYER-EXPERT" stroke="none" stroke-width="1" fill="none" fill-rule="evenodd">
        <g id="module-lecture-vidéo-1280-NEW-_3" transform="translate(-851.000000, -513.000000)" fill="#FFFFFF" fill-rule="nonzero">
            <g id="player_video_all" transform="translate(50.000000, 27.000000)">
                <g id="Bitmap" transform="translate(0.000000, 40.000000)">
                    <g id="player_video-audio" transform="translate(0.000000, 391.000000)">
                        <g id="picto16/pin" transform="translate(801.000000, 55.000000)">
                            <path d="M10.1730769,0.346153846 L9.75,0.923076923 L6.73076923,5.03846154 C5.11298092,4.75721169 3.40144246,5.21394215 2.15384615,6.46153846 L1.71153846,6.88461538 L4.98076923,10.1538462 L0,15.1346154 L0,16 L0.865384615,16 L5.84615385,11.0192308 L9.11538462,14.2884615 L9.53846154,13.8461538 C10.7860578,12.5985575 11.2427883,10.8870191 10.9615385,9.26923077 L15.0769231,6.25 L15.6538462,5.82692308 L10.1730769,0.346153846 Z M10.3269231,2.23076923 L13.7692308,5.67307692 L9.94230769,8.48076923 L9.59615385,8.73076923 L9.71153846,9.13461538 C10.0072117,10.2620191 9.685096,11.4375003 8.98076923,12.4230769 L3.57692308,7.01923077 C4.56250031,6.314904 5.73798092,5.99278831 6.86538462,6.28846154 L7.26923077,6.40384615 L7.51923077,6.05769231 L10.3269231,2.23076923 Z" id="Shape"></path>
                        </g>
                    </g>
                </g>
            </g>
        </g>
    </g>
</svg>