<svg width="24" height="24" viewBox="0 0 24 24" fill="none" xmlns="http://www.w3.org/2000/svg">
<g id="list_FILL1_wght500_GRAD0_opsz24 1">
<path id="Vector" d="M8.14363 8.8624C7.82443 8.8624 7.55504 8.75262 7.33547 8.53305C7.11591 8.31349 7.00613 8.0441 7.00613 7.7249C7.00613 7.4057 7.11591 7.13632 7.33547 6.91675C7.55504 6.69719 7.82443 6.5874 8.14363 6.5874H20.0659C20.3851 6.5874 20.6545 6.69719 20.8741 6.91675C21.0936 7.13632 21.2034 7.4057 21.2034 7.7249C21.2034 8.0441 21.0936 8.31349 20.8741 8.53305C20.6545 8.75262 20.3851 8.8624 20.0659 8.8624H8.14363ZM8.14363 13.1374C7.82443 13.1374 7.55504 13.0276 7.33547 12.8081C7.11591 12.5885 7.00613 12.3191 7.00613 11.9999C7.00613 11.6807 7.11591 11.4113 7.33547 11.1918C7.55504 10.9722 7.82443 10.8624 8.14363 10.8624H20.0659C20.3851 10.8624 20.6545 10.9722 20.8741 11.1918C21.0936 11.4113 21.2034 11.6807 21.2034 11.9999C21.2034 12.3191 21.0936 12.5885 20.8741 12.8081C20.6545 13.0276 20.3851 13.1374 20.0659 13.1374H8.14363ZM8.14363 17.4124C7.82443 17.4124 7.55504 17.3026 7.33547 17.0831C7.11591 16.8635 7.00613 16.5941 7.00613 16.2749C7.00613 15.9557 7.11591 15.6863 7.33547 15.4668C7.55504 15.2472 7.82443 15.1374 8.14363 15.1374H20.0659C20.3851 15.1374 20.6545 15.2472 20.8741 15.4668C21.0936 15.6863 21.2034 15.9557 21.2034 16.2749C21.2034 16.5941 21.0936 16.8635 20.8741 17.0831C20.6545 17.3026 20.3851 17.4124 20.0659 17.4124H8.14363ZM3.92695 8.8624C3.60677 8.8624 3.33837 8.7537 3.12177 8.5363C2.90517 8.3189 2.79688 8.04952 2.79688 7.72815C2.79688 7.40679 2.90517 7.13632 3.12177 6.91675C3.33837 6.69719 3.60677 6.5874 3.92695 6.5874C4.24713 6.5874 4.518 6.69699 4.73955 6.91615C4.96112 7.13532 5.0719 7.40689 5.0719 7.73088C5.0719 8.05148 4.96112 8.32021 4.73955 8.53708C4.518 8.75396 4.24713 8.8624 3.92695 8.8624ZM3.92695 13.1374C3.60677 13.1374 3.33837 13.0266 3.12177 12.8051C2.90517 12.5835 2.79688 12.3126 2.79688 11.9925C2.79688 11.6723 2.90517 11.4039 3.12177 11.1873C3.33837 10.9707 3.60677 10.8624 3.92695 10.8624C4.24713 10.8624 4.518 10.9707 4.73955 11.1873C4.96112 11.4039 5.0719 11.6723 5.0719 11.9925C5.0719 12.3126 4.96112 12.5835 4.73955 12.8051C4.518 13.0266 4.24713 13.1374 3.92695 13.1374ZM3.92695 17.4064C3.60677 17.4064 3.33837 17.2977 3.12177 17.0803C2.90517 16.8629 2.79688 16.5935 2.79688 16.2722C2.79688 15.9508 2.90517 15.6803 3.12177 15.4608C3.33837 15.2412 3.60677 15.1314 3.92695 15.1314C4.24713 15.1314 4.518 15.241 4.73955 15.4602C4.96112 15.6793 5.0719 15.9509 5.0719 16.2749C5.0719 16.5955 4.96112 16.8642 4.73955 17.0811C4.518 17.298 4.24713 17.4064 3.92695 17.4064Z" fill="#E9EAE9"/>
</g>
</svg>
