<?xml version="1.0" encoding="UTF-8"?>
<svg width="26px" height="12px" viewBox="0 0 26 12" version="1.1" xmlns="http://www.w3.org/2000/svg">
    <g stroke="none" stroke-width="1" fill="none" fill-rule="evenodd">
        <g id="module-lecture-vidéo-selon-ratio" transform="translate(-1232.000000, -1301.000000)"
           stroke="currentColor">
            <g transform="translate(413.000000, 1000.000000)">
                <g transform="translate(0.000000, 40.000000)">
                    <g transform="translate(0.000000, 176.000000)">
                        <g transform="translate(699.000000, 50.000000)">
                            <g transform="translate(121.000000, 36.000000)">
                                <g>
                                    <rect id="Rectangle" x="7" y="0" width="8" height="5" rx="2.5"></rect>
                                    <line x1="0" y1="2.5" x2="7" y2="2.5" id="Line-3" stroke-linecap="square"></line>
                                    <line x1="15.5" y1="2.5" x2="24" y2="2.5" id="Line-3-Copy"
                                          stroke-linecap="square"></line>
                                </g>
                                <g transform="translate(0.000000, 9.000000)" stroke-linecap="square">
                                    <path d="M0,0 C1.01453063e-16,0.828427125 0.671572875,1.5 1.5,1.5 L22.5,1.5 C23.3284271,1.5 24,0.828427125 24,0 L24,0 L24,0"
                                          id="Line"></path>
                                    <line x1="4" y1="0" x2="4" y2="1.5" id="Line-2-Copy-7"></line>
                                    <line x1="8" y1="0" x2="8" y2="1.5" id="Line-2-Copy-4"></line>
                                    <line x1="12" y1="0" x2="12" y2="1.5" id="Line-2-Copy-2"></line>
                                    <line x1="16" y1="0" x2="16" y2="1.5" id="Line-2-Copy"></line>
                                    <line x1="20" y1="0" x2="20" y2="1.5" id="Line-2"></line>
                                </g>
                            </g>
                        </g>
                    </g>
                </g>
            </g>
        </g>
    </g>
</svg>
