<?xml version="1.0" encoding="UTF-8"?>
<svg width="25px" height="24px" viewBox="0 0 25 24" version="1.1" xmlns="http://www.w3.org/2000/svg" xmlns:xlink="http://www.w3.org/1999/xlink">
    <!-- Generator: sketchtool 61 (101010) - https://sketch.com -->
    <title>573904B5-525B-4E00-9E47-FC3CF73F151C@x2</title>
    <desc>Created with sketchtool.</desc>
    <g id="Asset-Artboard-Page" stroke="none" stroke-width="1" fill="none" fill-rule="evenodd">
        <g id="picto24/-search-OFF-blue-picto-/-search-OFF-blue" transform="translate(0.442996, 0.000000)" fill="#0086B1" fill-rule="nonzero">
            <g id="icons8-search">
                <path d="M9.50910415,0 C4.26292803,0 0,4.16583644 0,9.29252669 C0,14.4192169 4.26292803,18.5850534 9.50910415,18.5850534 C11.584851,18.5850534 13.5032775,17.9316729 15.0677349,16.8256228 L22.4268026,24 L24,22.4626335 L16.7283321,15.3395018 C18.15732,13.7124558 19.0182083,11.6007116 19.0182083,9.29252669 C19.0182083,4.16583644 14.7552803,0 9.50910415,0 Z M9.5,1 C14.2015625,1 18,4.575 18,9 C18,13.425 14.2015625,17 9.5,17 C4.7984375,17 1,13.425 1,9 C1,4.575 4.7984375,1 9.5,1 Z" id="Shape"></path>
            </g>
        </g>
    </g>
</svg>
