<?xml version="1.0" encoding="UTF-8"?>
<svg width="18px" height="18px" viewBox="0 0 18 18" version="1.1" xmlns="http://www.w3.org/2000/svg">
    <g stroke="none" stroke-width="1" fill="none" fill-rule="evenodd">
        <g transform="translate(-729.000000, -444.000000)" fill="currentColor"
           fill-rule="nonzero" stroke="currentColor" stroke-width="0.25">
            <g transform="translate(730.000000, 445.000000)">
                <path d="M7.0277708,1.35687174e-06 C6.85748388,1.35687174e-06 6.71229044,0.12343434 6.68467108,0.291466521 L6.34632724,2.36297385 C5.93948054,2.48132417 5.55152901,2.64101622 5.18590251,2.8399163 L3.4765185,1.61902484 C3.33832336,1.52034288 3.14907719,1.53585014 3.02879008,1.65571272 L1.6754145,3.0077295 C1.55603085,3.12719671 1.5396994,3.31515159 1.63668837,3.45341949 L2.8392359,5.17367433 C2.63726816,5.54143563 2.47403893,5.93157412 2.35278176,6.34225175 L0.290106728,6.68535148 C0.122614576,6.71356364 0,6.85859965 0,7.0284512 L0,8.94165702 C-0.000305663239,9.11042877 0.120568026,9.25507616 0.286709709,9.28475674 L2.35074353,9.65027715 C2.47134337,10.0602427 2.63353518,10.4506501 2.83583909,10.8188542 L1.61834444,12.522124 C1.51966269,12.660319 1.53516994,12.849565 1.65503232,12.9698521 L3.00772881,14.3232278 C3.12692264,14.4424545 3.31444927,14.4590599 3.45273909,14.3626332 L5.17639075,13.1560091 C5.5430956,13.3560845 5.93199643,13.5169496 6.34021263,13.636349 L6.68467108,15.7105737 C6.71258716,15.8783359 6.85770176,16.0013598 7.0277708,16.0013598 L8.94097663,16.0013598 C9.10996336,16.0016074 9.25468791,15.8803826 9.28407635,15.7139708 L9.65299357,13.6315931 C10.0595255,13.5103644 10.446598,13.3471157 10.8113799,13.1458183 L12.5465814,14.3633129 C12.6848492,14.4603019 12.8728041,14.4439705 12.9922714,14.3245868 L14.3449677,12.9705314 C14.4653692,12.8498722 14.4806138,12.659747 14.3809763,12.5214446 L13.1437788,10.8039076 C13.3415953,10.4408729 13.500959,10.0561158 13.6193628,9.65231524 L15.7126111,9.28543611 C15.8790229,9.25604767 16.0002476,9.11132311 16,8.94233638 L16,7.02913056 C16,6.8588436 15.8765668,6.71365013 15.7085345,6.68603084 L13.6186835,6.34428984 C13.4994859,5.94096727 13.3396814,5.5568985 13.1417407,5.19405658 L14.3619528,3.45545792 C14.4589418,3.31719004 14.4426104,3.12923517 14.3232267,3.00976793 L12.969851,1.65707155 C12.8491918,1.53667011 12.6590665,1.52142556 12.5207642,1.62106303 L10.8079831,2.85282522 C10.4430547,2.65233451 10.0557269,2.48994907 9.64823768,2.36976788 L9.28407635,0.288069502 C9.2549808,0.121387576 9.11017881,-0.00018876414 8.94097663,1.35687174e-06 L7.0277708,1.35687174e-06 Z M7.32399176,0.695712789 L8.64883218,0.695712789 L8.99532906,2.67346214 C9.01888477,2.80898215 9.12007822,2.91789818 9.25350332,2.95133897 C9.76224562,3.07811738 10.2400535,3.27907948 10.6761781,3.54310119 C10.7953704,3.61532011 10.9461585,3.60943827 11.059363,3.52815418 L12.6872183,2.358218 L13.6241187,3.29511806 L12.4650531,4.94675282 C12.3859626,5.05931944 12.3806363,5.20792103 12.4514648,5.32586116 C12.7128751,5.76100208 12.9111413,6.23579298 13.0377917,6.741742 C13.0714999,6.87642126 13.1820562,6.97816508 13.3190657,7.00059562 L15.3042884,7.32535152 L15.3042884,8.65019229 L13.3149892,8.99940662 C13.1793597,9.02341502 13.070666,9.12518221 13.0377917,9.2589396 C12.9126065,9.76424474 12.7142206,10.2390224 12.4528235,10.6741411 C12.3811047,10.7933037 12.38725,10.9437307 12.4684499,11.0566462 L13.6438213,12.6878987 L12.7069212,13.6254785 L11.0580043,12.4684509 C10.9448582,12.3891972 10.7955393,12.3843977 10.6775372,12.4562217 C10.2435818,12.720241 9.76528205,12.9221513 9.2582592,13.0507013 C9.12549059,13.0841705 9.02470134,13.1924058 9.00076431,13.3272194 L8.64951189,15.3056482 L7.32263269,15.3056482 L6.99515934,13.3360518 C6.97237842,13.1991171 6.87037133,13.088832 6.73562636,13.0554572 C6.22658003,12.9299881 5.74662418,12.7293287 5.30751631,12.4657334 C5.18974121,12.3952005 5.04150052,12.4005233 4.92908733,12.4793214 L3.29307894,13.6254785 L2.35549938,12.68654 L3.51184741,11.0702345 C3.59262265,10.9570431 3.59823338,10.8066235 3.52611506,10.687729 C3.25965071,10.2474294 3.05812648,9.76751319 2.93095569,9.2562218 C2.89771786,9.12318909 2.78943564,9.02209024 2.65443779,8.99804789 L0.695711789,8.65019229 L0.695711789,7.32331309 L2.65307896,6.99787817 C2.78982773,6.97520035 2.90006456,6.87350484 2.93367348,6.73902455 C3.06193689,6.22597093 3.26336337,5.74613404 3.52883251,5.30683763 C3.60035943,5.18899926 3.59556301,5.04004261 3.5166033,4.92704993 L2.37384334,3.29375933 L3.31210246,2.35617977 L4.93384321,3.51524561 C5.04659388,3.59564194 5.19628928,3.60151238 5.31498964,3.53019261 C5.75177731,3.26785905 6.23284735,3.0688119 6.74242068,2.94386564 C6.87782885,2.9105286 6.98024525,2.79955504 7.00263267,2.66191226 L7.32399176,0.695712789 Z M8.00000008,5.21783564 C6.46719767,5.21783564 5.21715525,6.46787807 5.21715525,8.00068048 C5.21715525,9.53348289 6.46719767,10.7835253 8.00000008,10.7835253 C9.5328025,10.7835253 10.7828449,9.53348289 10.7828449,8.00068048 C10.7828449,6.46787807 9.5328025,5.21783564 8.00000008,5.21783564 Z M8.00000008,5.91354685 C9.15681233,5.91354685 10.0871337,6.84386823 10.0871337,8.00068048 C10.0871337,9.15749273 9.15681233,10.0878141 8.00000008,10.0878141 C6.84318783,10.0878141 5.91286646,9.15749273 5.91286646,8.00068048 C5.91286646,6.84386823 6.84318783,5.91354685 8.00000008,5.91354685 Z"></path>
            </g>
        </g>
    </g>
</svg>
