<?xml version="1.0" encoding="UTF-8"?>
<svg width="26px" height="26px" viewBox="0 0 26 26" version="1.1" xmlns="http://www.w3.org/2000/svg">
    <g stroke="none" stroke-width="1" fill="none" fill-rule="evenodd">
        <g transform="translate(-353.000000, -522.000000)" stroke="currentColor">
            <g transform="translate(50.000000, 24.000000)">
                <g transform="translate(0.000000, 40.000000)">
                    <g transform="translate(0.000000, 394.000000)">
                        <g transform="translate(199.000000, 65.000000)">
                            <g transform="translate(105.000000, 0.000000)">
                                <g transform="translate(12.000000, 12.000000) scale(-1, 1) translate(-12.000000, -12.000000) ">
                                    <polygon fill-rule="nonzero"
                                             points="9.81818182 17.4545455 13.7000199 14.6788068 17.4545455 12 13.7000199 9.32119318 9.81818182 6.54545455"></polygon>
                                    <path d="M12,24 C18.627417,24 24,18.627417 24,12 C24,5.372583 18.627417,0 12,0 C5.372583,0 0,5.372583 0,12 C0,18.627417 5.372583,24 12,24 Z"
                                          stroke-dasharray="38"></path>
                                    <path d="M12,24 C18.627417,24 24,18.627417 24,12 C24,5.372583 18.627417,0 12,0 C5.372583,0 0,5.372583 0,12 C0,18.627417 5.372583,24 12,24 Z"
                                          stroke-dasharray="2"
                                          transform="translate(12.000000, 12.000000) scale(-1, 1) translate(-12.000000, -12.000000) "></path>
                                </g>
                            </g>
                        </g>
                    </g>
                </g>
            </g>
        </g>
    </g>
</svg>
