<?xml version="1.0" encoding="UTF-8"?>
<svg width="26px" height="26px" viewBox="0 0 26 26" version="1.1" xmlns="http://www.w3.org/2000/svg"
>
    <!-- Generator: sketchtool 63 (101010) - https://sketch.com -->
    <title>63D3F83B-68E8-454E-B5B3-9301215A43CE@x2</title>
    <desc>Created with sketchtool.</desc>
    <g id="07---PLAYER-EXPERT" stroke="none" stroke-width="1" fill="none" fill-rule="evenodd">
        <g id="module-lecture-vidéo-1280-NEW-_5" transform="translate(-353.000000, -522.000000)" stroke="#FFFFFF">
            <g id="player_video_all" transform="translate(50.000000, 24.000000)">
                <g id="Bitmap" transform="translate(0.000000, 40.000000)">
                    <g id="player_video-audio" transform="translate(0.000000, 394.000000)">
                        <g id="Group-6" transform="translate(199.000000, 65.000000)">
                            <g id="picto24/rewind" transform="translate(105.000000, 0.000000)">
                                <g id="slow-motion"
                                   transform="translate(12.000000, 12.000000) scale(-1, 1) translate(-12.000000, -12.000000) ">
                                    <polygon id="Path" fill-rule="nonzero"
                                             points="9.81818182 17.4545455 13.7000199 14.6788068 17.4545455 12 13.7000199 9.32119318 9.81818182 6.54545455"></polygon>
                                    <path d="M12,24 C18.627417,24 24,18.627417 24,12 C24,5.372583 18.627417,0 12,0 C5.372583,0 0,5.372583 0,12 C0,18.627417 5.372583,24 12,24 Z"
                                          id="Oval" stroke-dasharray="38"></path>
                                    <path d="M12,24 C18.627417,24 24,18.627417 24,12 C24,5.372583 18.627417,0 12,0 C5.372583,0 0,5.372583 0,12 C0,18.627417 5.372583,24 12,24 Z"
                                          id="Oval" stroke-dasharray="2"
                                          transform="translate(12.000000, 12.000000) scale(-1, 1) translate(-12.000000, -12.000000) "></path>
                                </g>
                            </g>
                        </g>
                    </g>
                </g>
            </g>
        </g>
    </g>
</svg>
