<?xml version="1.0" encoding="UTF-8"?>
<svg width="24px" height="9px" viewBox="0 0 24 9" version="1.1" xmlns="http://www.w3.org/2000/svg" xmlns:xlink="http://www.w3.org/1999/xlink">
    <title>38FF36D2-38D5-4D3B-AACC-C86CABFE7783@2x</title>
    <g id="12---PLAYER_EXPERT" stroke="none" stroke-width="1" fill="none" fill-rule="evenodd">
        <g id="Module-lecture-vidéo-1440_NEW-02" transform="translate(-1102.000000, -1356.000000)" fill="#FFFFFF" fill-rule="nonzero">
            <g id="player_video_all-copy" transform="translate(305.000000, 804.000000)">
                <g id="Group-7" transform="translate(0.000000, 535.000000)">
                    <g id="picto/change_timeline" transform="translate(797.000000, 17.000000)">
                        <g id="icons8-advance">
                            <path d="M19.6725485,0 C19.4217896,0 19.1960726,0.15835403 19.1017141,0.400300892 C19.0073555,0.642247755 19.0631714,0.919609441 19.2428716,1.10174402 L21.8883362,3.85673093 L17.1026615,3.85673093 C16.8804262,3.85345785 16.673714,3.97505267 16.5616791,4.17495435 C16.4496442,4.37485603 16.4496442,4.6220938 16.5616791,4.82199548 C16.673714,5.02189716 16.8804262,5.14349198 17.1026615,5.1402189 L21.8883362,5.1402189 L19.2428716,7.89520594 C19.0818866,8.05616596 19.0170376,8.29518378 19.0733346,8.52007786 C19.1296316,8.74497195 19.2982775,8.92059987 19.5142311,8.97922756 C19.7301847,9.03785526 19.9597005,8.97032143 20.1142617,8.80267172 L23.7574927,5.00861133 C23.9105284,4.88703763 24.0002338,4.69798549 23.9999995,4.49753763 C23.9997615,4.29708977 23.9096109,4.10826743 23.7562892,3.98708518 L20.1142617,0.19427798 C19.9982431,0.0700794746 19.8389322,0 19.6725485,0 Z M4.32745147,9 C4.57821041,9 4.80392736,8.84164597 4.89828594,8.59969911 C4.99264451,8.35775225 4.9368286,8.08039056 4.75712843,7.89825598 L2.11166384,5.14326907 L6.89733847,5.14326907 C7.11957384,5.14654215 7.32628603,5.02494733 7.43832092,4.82504565 C7.5503558,4.62514397 7.5503558,4.3779062 7.43832092,4.17800452 C7.32628603,3.97810284 7.11957384,3.85650802 6.89733847,3.8597811 L2.11166384,3.8597811 L4.75712843,1.10479406 C4.91811335,0.943834036 4.98296242,0.70481622 4.92666543,0.479922136 C4.87036844,0.255028052 4.70172247,0.0794001296 4.48576888,0.0207724373 C4.2698153,-0.0378552551 4.04029945,0.0296785707 3.88573827,0.19732828 L0.242507294,3.99138867 C0.0894715835,4.11296237 -0.000233848311,4.30201451 4.57856717e-07,4.50246237 C0.000238463037,4.70291023 0.090389084,4.89173257 0.243710795,5.01291482 L3.88573827,8.80572202 C4.00175695,8.92992053 4.16106776,9 4.32745147,9 Z M9.70787879,3.85673093 C9.36754329,3.85673093 9.09164686,4.1440495 9.09164686,4.49847491 C9.09164686,4.85290033 9.36754329,5.1402189 9.70787879,5.1402189 C10.0482143,5.1402189 10.3241107,4.85290033 10.3241107,4.49847491 C10.3241107,4.1440495 10.0482143,3.85673093 9.70787879,3.85673093 Z M12.1728065,3.85673093 C11.832471,3.85673093 11.5565746,4.1440495 11.5565746,4.49847491 C11.5565746,4.85290033 11.832471,5.1402189 12.1728065,5.1402189 C12.513142,5.1402189 12.7890385,4.85290033 12.7890385,4.49847491 C12.7890385,4.1440495 12.513142,3.85673093 12.1728065,3.85673093 Z M14.6377343,3.85673093 C14.2973988,3.85673093 14.0215023,4.1440495 14.0215023,4.49847491 C14.0215023,4.85290033 14.2973988,5.1402189 14.6377343,5.1402189 C14.9780698,5.1402189 15.2539662,4.85290033 15.2539662,4.49847491 C15.2539662,4.1440495 14.9780698,3.85673093 14.6377343,3.85673093 Z" id="Shape"></path>
                        </g>
                    </g>
                </g>
            </g>
        </g>
    </g>
</svg>