<?xml version="1.0" encoding="UTF-8"?>
<svg width="26px" height="24px" version="1.1" xmlns="http://www.w3.org/2000/svg">
    <g stroke="none" stroke-width="1" fill="none" fill-rule="evenodd">
        <g transform="translate(-468.000000, -692.000000)" fill="currentColor" fill-rule="nonzero">
            <g transform="translate(469.000000, 692.000000)">
                <path d="M3.55744898e-05,0 L3.55744898e-05,7.34243508 C-0.00235689529,7.56232451 0.116063513,7.76787364 0.313430861,7.880208 C0.510798208,7.99015302 0.752572893,7.99015302 0.94994024,7.880208 C1.14730759,7.76787364 1.265728,7.56232451 1.26326106,7.34243508 L1.26326106,1.22377251 L17.0000356,1.22373589 L17.0000356,0 L3.55744898e-05,0 Z M16.4210733,2.03219373e-05 L16.376666,1.22377251 L16.4210733,1.22377251 L22.7368285,1.22377251 L22.7368285,7.34243508 C22.7318946,7.66270913 22.9860046,7.93279056 23.3165952,7.96147179 C23.3363319,7.96147179 23.3560687,7.96386174 23.3782723,7.96386174 C23.7261321,7.95669128 24.004914,7.67943938 23.9999795,7.34243508 L23.9999795,2.03219373e-05 L16.4210733,2.03219373e-05 Z"></path>
                <path d="M21.5619922,9.71947809 C21.4749205,9.73460046 21.4050818,9.79686941 21.3805928,9.87959794 C21.3561039,9.96321619 21.3814998,10.0521717 21.4458966,10.1108822 L23.107515,11.7476628 L16.2433622,11.7476628 C16.2361062,11.7476628 16.2288502,11.7476628 16.2215943,11.7476628 C16.0937078,11.7538897 15.993938,11.8606363 16.000287,11.9860634 C16.0066361,12.1114906 16.1154757,12.2093417 16.2433622,12.2031148 L23.107515,12.2031148 L21.4458966,13.8398954 C21.3769649,13.8950479 21.3452199,13.9831137 21.365174,14.0685109 C21.3851278,14.1530187 21.4531526,14.2197353 21.5393174,14.2393054 C21.6263891,14.2588757 21.7161818,14.2277413 21.7724155,14.1601351 L23.8403685,12.1390668 L24,11.9753888 L23.8403685,11.8117107 L21.7724155,9.79064247 C21.7243447,9.73993791 21.654506,9.71414088 21.5837602,9.71947809 C21.5765042,9.71947809 21.5692482,9.71947809 21.5619922,9.71947809 Z"
                      stroke="currentColor" stroke-width="0.4"></path>
                <path d="M5.56199223,9.71947809 C5.47492053,9.73460046 5.40508182,9.79686941 5.38059285,9.87959794 C5.35610387,9.96321619 5.38149979,10.0521717 5.44589663,10.1108822 L7.10751501,11.7476628 L0.243362197,11.7476628 C0.236106222,11.7476628 0.228850246,11.7476628 0.221594271,11.7476628 C0.0937077607,11.7538897 -0.00606201843,11.8606363 0.000287018173,11.9860634 C0.00663605478,12.1114906 0.115475687,12.2093417 0.243362197,12.2031148 L7.10751501,12.2031148 L5.44589663,13.8398954 C5.37696486,13.8950479 5.34521991,13.9831137 5.36517396,14.0685109 C5.38512777,14.1530187 5.4531526,14.2197353 5.53931737,14.2393054 C5.62638907,14.2588757 5.71618183,14.2277413 5.77241552,14.1601351 L7.84036854,12.1390668 L8,11.9753888 L7.84036854,11.8117107 L5.77241552,9.79064247 C5.72434474,9.73993791 5.65450604,9.71414088 5.58376016,9.71947809 C5.57650419,9.71947809 5.56924821,9.71947809 5.56199223,9.71947809 Z"
                      stroke="currentColor" stroke-width="0.4"
                      transform="translate(4.000000, 11.981933) scale(-1, 1) translate(-4.000000, -11.981933) "></path>
                <path d="M3.55744903e-05,16.0000034 L3.55744903e-05,23.3424384 C-0.00235689528,23.5623279 0.116063513,23.767877 0.313430859,23.8802113 C0.510798206,23.9901564 0.75257289,23.9901564 0.949940236,23.8802113 C1.14730758,23.767877 1.26572799,23.5623279 1.26326106,23.3424384 L1.26326106,17.2237759 L17.0000356,17.2237393 L17.0000356,16.0000034 L3.55744903e-05,16.0000034 Z M16.4210733,16.0000237 L16.3766659,17.2237759 L16.4210733,17.2237759 L22.7368284,17.2237759 L22.7368284,23.3424384 C22.7318945,23.6627125 22.9860045,23.9327939 23.3165951,23.9614751 C23.3363318,23.9614751 23.3560686,23.9638651 23.3782722,23.9638651 C23.726132,23.9566946 24.0049139,23.6794427 23.9999794,23.3424384 L23.9999794,16.0000237 L16.4210733,16.0000237 Z"
                      transform="translate(12.000022, 19.981934) scale(1, -1) translate(-12.000022, -19.981934) "></path>
            </g>
        </g>
    </g>
</svg>
