<?xml version="1.0" encoding="UTF-8"?>
<svg viewBox="0 0 24 22" version="1.1" xmlns="http://www.w3.org/2000/svg">
    <g stroke="none" stroke-width="1" fill="none" fill-rule="evenodd">
        <g  transform="translate(-344.000000, -353.000000)" fill="currentColor" fill-rule="nonzero">
            <g transform="translate(344.000000, 353.000000)">
                <path d="M11.588272,0 C11.4422959,0 11.2981908,0.0303192649 11.1540861,0.0757981623 C10.8640049,0.16865079 10.5870242,0.342986563 10.345602,0.591225666 L4.71615721,6.29124747 L1.45227698,6.29124747 C0.653150223,6.29124747 0,6.95258631 0,7.76173182 L0,13.5830307 C0,14.3921762 0.653150223,15.053515 1.45227698,15.053515 L4.71615721,15.053515 L10.3306301,20.7080579 C10.8658767,21.2519099 11.5527135,21.4906738 12.1122895,21.2234854 C12.6756081,20.9544022 12.9507174,20.3063277 12.9507174,19.5559259 L12.9507174,1.60692104 C12.9507174,0.879258682 12.5839052,0.274768217 12.0224579,0.0757981623 C11.882096,0.0265295993 11.7342485,0 11.588272,0 Z M11.6032439,0.970216477 C11.6519029,0.970216477 11.6893327,0.974006628 11.7230193,0.98537611 C11.8596381,1.03274984 11.992514,1.15592222 11.992514,1.60692104 L11.992514,19.5559259 C11.992514,20.0732482 11.8240801,20.3044328 11.7080474,20.3593864 C11.5920152,20.4143399 11.3580785,20.4200249 10.9893949,20.0410341 L4.95570805,13.9317022 C4.94635071,13.9260172 4.93512153,13.9203327 4.92576419,13.9165426 C4.96132264,13.9487567 4.80598877,13.6417744 4.80598877,13.4617536 L4.80598877,7.88300888 C4.80598877,7.70298812 4.96693723,7.39221565 4.92576419,7.4282199 C4.93699338,7.41874525 4.94635071,7.4092706 4.95570805,7.39790064 L11.0193387,1.27340913 C11.2439177,1.04411981 11.455396,0.97211131 11.6032439,0.970216477 Z M18.3555833,1.84947516 C18.1459763,1.88547941 17.9850283,2.05792035 17.9606986,2.27205004 C17.9382407,2.48617972 18.0542734,2.69083476 18.2507798,2.77421274 C21.1010606,4.22953745 23.0417966,7.21409022 23.0417966,10.6723812 C23.0417966,14.1306723 21.1010606,17.115225 18.2507798,18.5705498 C18.0748599,18.6311883 17.9513412,18.7903644 17.9307547,18.9760702 C17.9101687,19.1636703 17.9981284,19.3455858 18.1572055,19.4441235 C18.3144107,19.5407662 18.5146599,19.5369766 18.6699938,19.4346488 C21.8328137,17.8182531 24,14.5020833 24,10.6723812 C24,6.84267922 21.8328137,3.52650938 18.6699938,1.91011369 C18.5876482,1.86273996 18.4940739,1.84189534 18.4004991,1.84947516 C18.3855271,1.84947516 18.3705552,1.84947516 18.3555833,1.84947516 Z M16.6487835,4.42661268 C16.4354338,4.45314228 16.265128,4.62179307 16.2351841,4.83781759 C16.2033689,5.05194776 16.3175298,5.26228729 16.5140362,5.35135026 C18.3836558,6.37273061 19.658141,8.36622228 19.658141,10.6723812 C19.658141,12.9709604 18.3892704,14.970137 16.5290081,15.9934122 C16.2969432,16.1222691 16.2127263,16.4178819 16.341859,16.6528563 C16.4691204,16.8878306 16.761073,16.9731034 16.9931379,16.8423517 C19.1528387,15.6542153 20.6163444,13.3328967 20.6163444,10.6723812 C20.6163444,8.00428594 19.1490954,5.67349269 16.9781659,4.48725121 C16.8920776,4.43798264 16.7928882,4.41713803 16.6936993,4.42661268 C16.6787274,4.42661268 16.6637555,4.42661268 16.6487835,4.42661268 Z M1.45227698,7.29178321 L3.93761697,7.29178321 C3.87585789,7.47748895 3.8477854,7.68024867 3.8477854,7.88300888 L3.8477854,13.4617536 C3.8477854,13.6645138 3.87772926,13.8653787 3.93761697,14.0529793 L1.45227698,14.0529793 C1.19401147,14.0529793 0.988147224,13.8445346 0.988147224,13.5830307 L0.988147224,7.76173182 C0.988147224,7.5002284 1.19401147,7.29178321 1.45227698,7.29178321 Z M14.6425452,7.4736988 C14.4104803,7.50212323 14.2345604,7.6954083 14.2233313,7.93227792 C14.2121025,8.16725223 14.3693078,8.37759176 14.5976294,8.42875564 C15.5782907,8.68836423 16.3044292,9.59415251 16.3044292,10.6723812 C16.3044292,11.75061 15.5782907,12.6563983 14.5976294,12.9160069 C14.3412353,12.9823304 14.1877728,13.2476239 14.2532751,13.5072325 C14.3187774,13.7668411 14.5807861,13.9222276 14.8371803,13.8559041 C16.2314409,13.4863879 17.2626326,12.1940295 17.2626326,10.6723812 C17.2626326,9.15073302 16.2314409,7.85837459 14.8371803,7.48885843 C14.7735498,7.46990913 14.7080475,7.46611898 14.6425452,7.4736988 Z"></path>
            </g>
        </g>
    </g>
</svg>
