<?xml version="1.0" encoding="UTF-8"?>
<svg width="16px" height="16px" viewBox="0 0 16 16" version="1.1" xmlns="http://www.w3.org/2000/svg">
    <g stroke="none" stroke-width="1" fill="none" fill-rule="evenodd">
        <g transform="translate(-796.000000, -696.000000)" fill="currentColor" fill-rule="nonzero">
            <g transform="translate(723.000000, 692.000000)">
                <g transform="translate(73.000000, 4.000000)">
                    <path d="M6.33940277,0 C2.84195202,0 0,2.77722429 0,6.19501779 C0,9.6128113 2.84195202,12.3900356 6.33940277,12.3900356 C7.72323398,12.3900356 9.002185,11.9544486 10.0451566,11.2170819 L14.9512017,16 L16,14.975089 L11.1522214,10.2263345 C12.10488,9.14163719 12.6788055,7.73380774 12.6788055,6.19501779 C12.6788055,2.77722429 9.83685351,0 6.33940277,0 Z M6.33333333,0.666666667 C9.46770833,0.666666667 12,3.05 12,6 C12,8.95 9.46770833,11.3333333 6.33333333,11.3333333 C3.19895833,11.3333333 0.666666667,8.95 0.666666667,6 C0.666666667,3.05 3.19895833,0.666666667 6.33333333,0.666666667 Z"
                          id="Shape"></path>
                    <g transform="translate(3.333333, 2.666667)">
                        <polygon
                                points="0.409808206 0.476393832 0.409808206 2.5717675 1.18960913 1.77508897 2.65307113 3.27022539 1.18960913 4.7653618 0.409808206 3.96868327 0.409808206 6.06405694 2.46079145 6.06405694 1.68099053 5.26737841 3.14445254 3.77224199 4.60791454 5.26737841 3.82811362 6.06405694 5.87909687 6.06405694 5.87909687 3.96868327 5.09929595 4.7653618 3.63583394 3.27022539 5.09929595 1.77508897 5.87909687 2.5717675 5.87909687 0.476393832 3.82811362 0.476393832 4.60791454 1.27307236 3.14445254 2.76820878 1.68099053 1.27307236 2.46079145 0.476393832"></polygon>
                    </g>
                </g>
            </g>
        </g>
    </g>
</svg>
